<svg xmlns="http://www.w3.org/2000/svg" viewBox="0 0 22.96 26.79"><defs><style>.cls-1{fill:#868686;}.cls-2{fill:#c07913;}.cls-3{fill:#fdbf0f;}.cls-4{fill:#450000;}.cls-5{fill:#fff588;}.cls-6{fill:#fffad3;}</style></defs><title>Eszköz 2</title><g id="Réteg_2" data-name="Réteg 2"><g id="Layer_1" data-name="Layer 1"><rect class="cls-1" x="5.36" y="12.25" width="0.77" height="0.77"/><rect class="cls-1" x="0.77" y="15.31" width="0.77" height="0.77"/><rect class="cls-1" x="1.53" y="14.54" width="0.77" height="0.77"/><rect class="cls-1" x="1.53" y="13.78" width="0.77" height="0.77"/><rect class="cls-1" x="2.3" y="13.01" width="0.77" height="0.77"/><rect class="cls-2" x="10.72" y="26.02" width="0.77" height="0.77"/><rect class="cls-3" x="10.72" y="25.26" width="0.77" height="0.77"/><rect class="cls-4" x="10.72" y="24.49" width="0.77" height="0.77"/><rect class="cls-4" x="10.72" y="23.73" width="0.77" height="0.77"/><rect class="cls-3" x="10.72" y="22.96" width="0.77" height="0.77"/><rect class="cls-3" x="10.72" y="22.2" width="0.77" height="0.77"/><rect class="cls-4" x="10.72" y="21.43" width="0.77" height="0.77"/><rect class="cls-4" x="10.72" y="20.66" width="0.77" height="0.77"/><rect class="cls-3" x="10.72" y="19.9" width="0.77" height="0.77"/><rect class="cls-4" x="10.72" y="19.13" width="0.77" height="0.77"/><rect class="cls-4" x="10.72" y="18.37" width="0.77" height="0.77"/><rect class="cls-3" x="10.72" y="17.6" width="0.77" height="0.77"/><rect class="cls-3" x="10.72" y="16.84" width="0.77" height="0.77"/><rect class="cls-4" x="10.72" y="16.07" width="0.77" height="0.77"/><rect class="cls-4" x="10.72" y="15.31" width="0.77" height="0.77"/><rect class="cls-3" x="10.72" y="14.54" width="0.77" height="0.77"/><rect class="cls-4" x="10.72" y="13.78" width="0.77" height="0.77"/><rect class="cls-4" x="10.72" y="13.01" width="0.77" height="0.77"/><rect class="cls-3" x="10.72" y="12.25" width="0.77" height="0.77"/><rect class="cls-3" x="10.72" y="11.48" width="0.77" height="0.77"/><rect class="cls-2" x="10.72" y="10.72" width="0.77" height="0.77"/><rect class="cls-3" x="10.72" y="9.95" width="0.77" height="0.77"/><rect class="cls-3" x="10.72" y="9.18" width="0.77" height="0.77"/><rect class="cls-3" x="10.72" y="8.42" width="0.77" height="0.77"/><rect class="cls-3" x="10.72" y="7.65" width="0.77" height="0.77"/><rect class="cls-3" x="10.72" y="6.89" width="0.77" height="0.77"/><rect class="cls-3" x="10.72" y="6.12" width="0.77" height="0.77"/><rect class="cls-1" x="10.72" y="5.36" width="0.77" height="0.77"/><rect class="cls-1" x="10.72" y="4.59" width="0.77" height="0.77"/><rect class="cls-1" x="10.72" y="3.83" width="0.77" height="0.77"/><rect class="cls-1" x="10.72" y="3.06" width="0.77" height="0.77"/><rect class="cls-1" x="10.72" y="2.3" width="0.77" height="0.77"/><rect class="cls-1" x="10.72" y="1.53" width="0.77" height="0.77"/><rect class="cls-2" x="9.95" y="26.02" width="0.77" height="0.77"/><rect class="cls-3" x="9.95" y="25.26" width="0.77" height="0.77"/><rect class="cls-4" x="9.95" y="24.49" width="0.77" height="0.77"/><rect class="cls-4" x="9.95" y="23.73" width="0.77" height="0.77"/><rect class="cls-3" x="9.95" y="22.96" width="0.77" height="0.77"/><rect class="cls-3" x="9.95" y="22.2" width="0.77" height="0.77"/><rect class="cls-4" x="9.95" y="21.43" width="0.77" height="0.77"/><rect class="cls-4" x="9.95" y="20.66" width="0.77" height="0.77"/><rect class="cls-3" x="9.95" y="19.9" width="0.77" height="0.77"/><rect class="cls-4" x="9.95" y="19.13" width="0.77" height="0.77"/><rect class="cls-4" x="9.95" y="18.37" width="0.77" height="0.77"/><rect class="cls-3" x="9.95" y="17.6" width="0.77" height="0.77"/><rect class="cls-3" x="9.95" y="16.84" width="0.77" height="0.77"/><rect class="cls-4" x="9.95" y="16.07" width="0.77" height="0.77"/><rect class="cls-4" x="9.95" y="15.31" width="0.77" height="0.77"/><rect class="cls-3" x="9.95" y="14.54" width="0.77" height="0.77"/><rect class="cls-4" x="9.95" y="13.78" width="0.77" height="0.77"/><rect class="cls-4" x="9.95" y="13.01" width="0.77" height="0.77"/><rect class="cls-3" x="9.95" y="12.25" width="0.77" height="0.77"/><rect class="cls-3" x="9.95" y="11.48" width="0.77" height="0.77"/><rect class="cls-2" x="9.95" y="10.72" width="0.77" height="0.77"/><rect class="cls-3" x="9.95" y="9.95" width="0.77" height="0.77"/><rect class="cls-3" x="9.95" y="9.18" width="0.77" height="0.77"/><rect class="cls-3" x="9.95" y="8.42" width="0.77" height="0.77"/><rect class="cls-3" x="9.95" y="7.65" width="0.77" height="0.77"/><rect class="cls-3" x="9.95" y="6.89" width="0.77" height="0.77"/><rect class="cls-2" x="9.95" y="6.12" width="0.77" height="0.77"/><rect class="cls-1" x="9.95" y="5.36" width="0.77" height="0.77"/><rect class="cls-1" x="9.95" y="4.59" width="0.77" height="0.77"/><rect class="cls-1" x="9.95" y="3.83" width="0.77" height="0.77"/><rect class="cls-1" x="9.95" y="3.06" width="0.77" height="0.77"/><rect class="cls-1" x="9.95" y="2.3" width="0.77" height="0.77"/><rect class="cls-1" x="9.95" y="1.53" width="0.77" height="0.77"/><rect class="cls-2" x="9.18" y="25.26" width="0.77" height="0.77"/><rect class="cls-4" x="9.18" y="24.49" width="0.77" height="0.77"/><rect class="cls-4" x="9.18" y="23.73" width="0.77" height="0.77"/><rect class="cls-3" x="9.18" y="22.96" width="0.77" height="0.77"/><rect class="cls-3" x="9.18" y="22.2" width="0.77" height="0.77"/><rect class="cls-4" x="9.18" y="21.43" width="0.77" height="0.77"/><rect class="cls-4" x="9.18" y="20.66" width="0.77" height="0.77"/><rect class="cls-3" x="9.18" y="19.9" width="0.77" height="0.77"/><rect class="cls-4" x="9.18" y="19.13" width="0.77" height="0.77"/><rect class="cls-4" x="9.18" y="18.37" width="0.77" height="0.77"/><rect class="cls-3" x="9.18" y="17.6" width="0.77" height="0.77"/><rect class="cls-3" x="9.18" y="16.84" width="0.77" height="0.77"/><rect class="cls-4" x="9.18" y="16.07" width="0.77" height="0.77"/><rect class="cls-4" x="9.18" y="15.31" width="0.77" height="0.77"/><rect class="cls-3" x="9.18" y="14.54" width="0.77" height="0.77"/><rect class="cls-3" x="9.18" y="13.78" width="0.77" height="0.77"/><rect class="cls-4" x="9.18" y="13.01" width="0.77" height="0.77"/><rect class="cls-5" x="9.18" y="12.25" width="0.77" height="0.77"/><rect class="cls-5" x="9.18" y="11.48" width="0.77" height="0.77"/><rect class="cls-5" x="9.18" y="10.72" width="0.77" height="0.77"/><rect class="cls-5" x="9.18" y="9.95" width="0.77" height="0.77"/><rect class="cls-5" x="9.18" y="9.18" width="0.77" height="0.77"/><rect class="cls-3" x="9.18" y="8.42" width="0.77" height="0.77"/><rect class="cls-3" x="9.18" y="7.65" width="0.77" height="0.77"/><rect class="cls-2" x="9.18" y="6.89" width="0.77" height="0.77"/><rect class="cls-1" x="9.18" y="5.36" width="0.77" height="0.77"/><rect class="cls-1" x="9.18" y="4.59" width="0.77" height="0.77"/><rect class="cls-1" x="9.18" y="3.83" width="0.77" height="0.77"/><rect class="cls-1" x="9.18" y="3.06" width="0.77" height="0.77"/><rect class="cls-1" x="9.18" y="2.3" width="0.77" height="0.77"/><rect class="cls-2" x="8.42" y="24.49" width="0.77" height="0.77"/><rect class="cls-4" x="8.42" y="23.73" width="0.77" height="0.77"/><rect class="cls-4" x="8.42" y="22.96" width="0.77" height="0.77"/><rect class="cls-3" x="8.42" y="22.2" width="0.77" height="0.77"/><rect class="cls-4" x="8.42" y="21.43" width="0.77" height="0.77"/><rect class="cls-4" x="8.42" y="20.66" width="0.77" height="0.77"/><rect class="cls-3" x="8.42" y="19.9" width="0.77" height="0.77"/><rect class="cls-3" x="8.42" y="19.13" width="0.77" height="0.77"/><rect class="cls-4" x="8.42" y="18.37" width="0.77" height="0.77"/><rect class="cls-4" x="8.42" y="17.6" width="0.77" height="0.77"/><rect class="cls-3" x="8.42" y="16.84" width="0.77" height="0.77"/><rect class="cls-3" x="8.42" y="16.07" width="0.77" height="0.77"/><rect class="cls-4" x="8.42" y="15.31" width="0.77" height="0.77"/><rect class="cls-5" x="8.42" y="14.54" width="0.77" height="0.77"/><rect class="cls-5" x="8.42" y="13.78" width="0.77" height="0.77"/><rect class="cls-5" x="8.42" y="13.01" width="0.77" height="0.77"/><rect class="cls-6" x="8.42" y="12.25" width="0.77" height="0.77"/><rect class="cls-6" x="8.42" y="11.48" width="0.77" height="0.77"/><rect class="cls-6" x="8.42" y="10.72" width="0.77" height="0.77"/><rect class="cls-5" x="8.42" y="9.95" width="0.77" height="0.77"/><rect class="cls-2" x="8.42" y="9.18" width="0.77" height="0.77"/><rect class="cls-2" x="8.42" y="8.42" width="0.77" height="0.77"/><rect class="cls-2" x="8.42" y="7.65" width="0.77" height="0.77"/><rect class="cls-1" x="8.42" y="4.59" width="0.77" height="0.77"/><rect class="cls-1" x="8.42" y="3.83" width="0.77" height="0.77"/><rect class="cls-1" x="8.42" y="3.06" width="0.77" height="0.77"/><rect class="cls-1" x="8.42" y="1.53" width="0.77" height="0.77"/><rect class="cls-2" x="7.65" y="23.73" width="0.77" height="0.77"/><rect class="cls-2" x="7.65" y="22.96" width="0.77" height="0.77"/><rect class="cls-3" x="7.65" y="22.2" width="0.77" height="0.77"/><rect class="cls-3" x="7.65" y="21.43" width="0.77" height="0.77"/><rect class="cls-4" x="7.65" y="20.66" width="0.77" height="0.77"/><rect class="cls-4" x="7.65" y="19.9" width="0.77" height="0.77"/><rect class="cls-3" x="7.65" y="19.13" width="0.77" height="0.77"/><rect class="cls-3" x="7.65" y="18.37" width="0.77" height="0.77"/><rect class="cls-4" x="7.65" y="17.6" width="0.77" height="0.77"/><rect class="cls-4" x="7.65" y="16.84" width="0.77" height="0.77"/><rect class="cls-5" x="7.65" y="16.07" width="0.77" height="0.77"/><rect class="cls-5" x="7.65" y="15.31" width="0.77" height="0.77"/><rect class="cls-6" x="7.65" y="14.54" width="0.77" height="0.77"/><rect class="cls-6" x="7.65" y="13.78" width="0.77" height="0.77"/><rect class="cls-6" x="7.65" y="13.01" width="0.77" height="0.77"/><rect class="cls-6" x="7.65" y="12.25" width="0.77" height="0.77"/><rect class="cls-6" x="7.65" y="11.48" width="0.77" height="0.77"/><rect class="cls-5" x="7.65" y="10.72" width="0.77" height="0.77"/><rect class="cls-1" x="7.65" y="1.53" width="0.77" height="0.77"/><rect class="cls-2" x="6.89" y="22.2" width="0.77" height="0.77"/><rect class="cls-2" x="6.89" y="21.43" width="0.77" height="0.77"/><rect class="cls-2" x="6.89" y="20.66" width="0.77" height="0.77"/><rect class="cls-2" x="6.89" y="19.9" width="0.77" height="0.77"/><rect class="cls-2" x="6.89" y="19.13" width="0.77" height="0.77"/><rect class="cls-2" x="6.89" y="18.37" width="0.77" height="0.77"/><rect class="cls-5" x="6.89" y="17.6" width="0.77" height="0.77"/><rect class="cls-5" x="6.89" y="16.84" width="0.77" height="0.77"/><rect class="cls-5" x="6.89" y="16.07" width="0.77" height="0.77"/><rect class="cls-6" x="6.89" y="15.31" width="0.77" height="0.77"/><rect class="cls-6" x="6.89" y="14.54" width="0.77" height="0.77"/><rect class="cls-6" x="6.89" y="13.78" width="0.77" height="0.77"/><rect class="cls-6" x="6.89" y="13.01" width="0.77" height="0.77"/><rect class="cls-6" x="6.89" y="12.25" width="0.77" height="0.77"/><rect class="cls-5" x="6.89" y="11.48" width="0.77" height="0.77"/><rect class="cls-1" x="6.89" y="9.95" width="0.77" height="0.77"/><rect class="cls-1" x="6.89" y="0.77" width="0.77" height="0.77"/><rect class="cls-5" x="6.12" y="19.13" width="0.77" height="0.77"/><rect class="cls-5" x="6.12" y="18.37" width="0.77" height="0.77"/><rect class="cls-6" x="6.12" y="17.6" width="0.77" height="0.77"/><rect class="cls-6" x="6.12" y="16.84" width="0.77" height="0.77"/><rect class="cls-6" x="6.12" y="16.07" width="0.77" height="0.77"/><rect class="cls-6" x="6.12" y="15.31" width="0.77" height="0.77"/><rect class="cls-6" x="6.12" y="14.54" width="0.77" height="0.77"/><rect class="cls-6" x="6.12" y="13.78" width="0.77" height="0.77"/><rect class="cls-6" x="6.12" y="13.01" width="0.77" height="0.77"/><rect class="cls-5" x="6.12" y="12.25" width="0.77" height="0.77"/><rect class="cls-1" x="6.12" y="9.18" width="0.77" height="0.77"/><rect class="cls-1" x="6.12" y="0.77" width="0.77" height="0.77"/><rect class="cls-5" x="5.36" y="20.66" width="0.77" height="0.77"/><rect class="cls-5" x="5.36" y="19.9" width="0.77" height="0.77"/><rect class="cls-6" x="5.36" y="19.13" width="0.77" height="0.77"/><rect class="cls-6" x="5.36" y="18.37" width="0.77" height="0.77"/><rect class="cls-6" x="5.36" y="17.6" width="0.77" height="0.77"/><rect class="cls-6" x="5.36" y="16.84" width="0.77" height="0.77"/><rect class="cls-6" x="5.36" y="16.07" width="0.77" height="0.77"/><rect class="cls-6" x="5.36" y="15.31" width="0.77" height="0.77"/><rect class="cls-6" x="5.36" y="14.54" width="0.77" height="0.77"/><rect class="cls-6" x="5.36" y="13.78" width="0.77" height="0.77"/><rect class="cls-5" x="5.36" y="13.01" width="0.77" height="0.77"/><rect class="cls-1" x="5.36" y="8.42" width="0.77" height="0.77"/><rect class="cls-1" x="5.36" y="7.65" width="0.77" height="0.77"/><rect class="cls-1" x="5.36" width="0.77" height="0.77"/><rect class="cls-1" x="4.59" y="22.96" width="0.77" height="0.77"/><rect class="cls-1" x="4.59" y="22.2" width="0.77" height="0.77"/><rect class="cls-5" x="4.59" y="21.43" width="0.77" height="0.77"/><rect class="cls-6" x="4.59" y="20.66" width="0.77" height="0.77"/><rect class="cls-6" x="4.59" y="19.9" width="0.77" height="0.77"/><rect class="cls-6" x="4.59" y="19.13" width="0.77" height="0.77"/><rect class="cls-6" x="4.59" y="18.37" width="0.77" height="0.77"/><rect class="cls-6" x="4.59" y="17.6" width="0.77" height="0.77"/><rect class="cls-6" x="4.59" y="16.84" width="0.77" height="0.77"/><rect class="cls-6" x="4.59" y="16.07" width="0.77" height="0.77"/><rect class="cls-6" x="4.59" y="15.31" width="0.77" height="0.77"/><rect class="cls-6" x="4.59" y="14.54" width="0.77" height="0.77"/><rect class="cls-5" x="4.59" y="13.78" width="0.77" height="0.77"/><rect class="cls-1" x="4.59" y="12.25" width="0.77" height="0.77"/><rect class="cls-1" x="4.59" y="6.89" width="0.77" height="0.77"/><rect class="cls-1" x="4.59" y="6.12" width="0.77" height="0.77"/><rect class="cls-1" x="4.59" y="5.36" width="0.77" height="0.77"/><rect class="cls-1" x="4.59" y="4.59" width="0.77" height="0.77"/><rect class="cls-1" x="4.59" width="0.77" height="0.77"/><rect class="cls-1" x="3.83" y="24.49" width="0.77" height="0.77"/><rect class="cls-1" x="3.83" y="23.73" width="0.77" height="0.77"/><rect class="cls-1" x="3.83" y="22.96" width="0.77" height="0.77"/><rect class="cls-5" x="3.83" y="22.2" width="0.77" height="0.77"/><rect class="cls-6" x="3.83" y="21.43" width="0.77" height="0.77"/><rect class="cls-6" x="3.83" y="20.66" width="0.77" height="0.77"/><rect class="cls-6" x="3.83" y="19.9" width="0.77" height="0.77"/><rect class="cls-6" x="3.83" y="19.13" width="0.77" height="0.77"/><rect class="cls-6" x="3.83" y="18.37" width="0.77" height="0.77"/><rect class="cls-6" x="3.83" y="17.6" width="0.77" height="0.77"/><rect class="cls-6" x="3.83" y="16.84" width="0.77" height="0.77"/><rect class="cls-6" x="3.83" y="16.07" width="0.77" height="0.77"/><rect class="cls-6" x="3.83" y="15.31" width="0.77" height="0.77"/><rect class="cls-5" x="3.83" y="14.54" width="0.77" height="0.77"/><rect class="cls-1" x="3.83" y="12.25" width="0.77" height="0.77"/><rect class="cls-1" x="3.06" y="25.26" width="0.77" height="0.77"/><rect class="cls-5" x="3.06" y="22.2" width="0.77" height="0.77"/><rect class="cls-6" x="3.06" y="21.43" width="0.77" height="0.77"/><rect class="cls-6" x="3.06" y="20.66" width="0.77" height="0.77"/><rect class="cls-6" x="3.06" y="19.9" width="0.77" height="0.77"/><rect class="cls-6" x="3.06" y="19.13" width="0.77" height="0.77"/><rect class="cls-6" x="3.06" y="18.37" width="0.77" height="0.77"/><rect class="cls-6" x="3.06" y="17.6" width="0.77" height="0.77"/><rect class="cls-6" x="3.06" y="16.84" width="0.77" height="0.77"/><rect class="cls-6" x="3.06" y="16.07" width="0.77" height="0.77"/><rect class="cls-6" x="3.06" y="15.31" width="0.77" height="0.77"/><rect class="cls-5" x="3.06" y="14.54" width="0.77" height="0.77"/><rect class="cls-1" x="3.06" y="12.25" width="0.77" height="0.77"/><rect class="cls-5" x="2.3" y="22.96" width="0.77" height="0.77"/><rect class="cls-6" x="2.3" y="22.2" width="0.77" height="0.77"/><rect class="cls-6" x="2.3" y="21.43" width="0.77" height="0.77"/><rect class="cls-6" x="2.3" y="20.66" width="0.77" height="0.77"/><rect class="cls-6" x="2.3" y="19.9" width="0.77" height="0.77"/><rect class="cls-6" x="2.3" y="19.13" width="0.77" height="0.77"/><rect class="cls-6" x="2.3" y="18.37" width="0.77" height="0.77"/><rect class="cls-6" x="2.3" y="17.6" width="0.77" height="0.77"/><rect class="cls-6" x="2.3" y="16.84" width="0.77" height="0.77"/><rect class="cls-5" x="2.3" y="16.07" width="0.77" height="0.77"/><rect class="cls-5" x="2.3" y="15.31" width="0.77" height="0.77"/><rect class="cls-5" x="1.53" y="22.96" width="0.77" height="0.77"/><rect class="cls-6" x="1.53" y="22.2" width="0.77" height="0.77"/><rect class="cls-6" x="1.53" y="21.43" width="0.77" height="0.77"/><rect class="cls-6" x="1.53" y="20.66" width="0.77" height="0.77"/><rect class="cls-6" x="1.53" y="19.9" width="0.77" height="0.77"/><rect class="cls-6" x="1.53" y="19.13" width="0.77" height="0.77"/><rect class="cls-6" x="1.53" y="18.37" width="0.77" height="0.77"/><rect class="cls-6" x="1.53" y="17.6" width="0.77" height="0.77"/><rect class="cls-5" x="1.53" y="16.84" width="0.77" height="0.77"/><rect class="cls-5" x="0.77" y="22.96" width="0.77" height="0.77"/><rect class="cls-6" x="0.77" y="22.2" width="0.77" height="0.77"/><rect class="cls-6" x="0.77" y="21.43" width="0.77" height="0.77"/><rect class="cls-6" x="0.77" y="20.66" width="0.77" height="0.77"/><rect class="cls-6" x="0.77" y="19.9" width="0.77" height="0.77"/><rect class="cls-6" x="0.77" y="19.13" width="0.77" height="0.77"/><rect class="cls-5" x="0.77" y="18.37" width="0.77" height="0.77"/><rect class="cls-5" x="0.77" y="17.6" width="0.77" height="0.77"/><rect class="cls-5" y="22.96" width="0.77" height="0.77"/><rect class="cls-5" y="22.2" width="0.77" height="0.77"/><rect class="cls-5" y="21.43" width="0.77" height="0.77"/><rect class="cls-5" y="20.66" width="0.77" height="0.77"/><rect class="cls-5" y="19.9" width="0.77" height="0.77"/><rect class="cls-5" y="19.13" width="0.77" height="0.77"/><rect class="cls-1" x="16.84" y="12.25" width="0.77" height="0.77"/><rect class="cls-1" x="21.43" y="15.31" width="0.77" height="0.77"/><rect class="cls-1" x="20.67" y="14.54" width="0.77" height="0.77"/><rect class="cls-1" x="20.67" y="13.78" width="0.77" height="0.77"/><rect class="cls-1" x="19.9" y="13.01" width="0.77" height="0.77"/><rect class="cls-2" x="11.48" y="26.02" width="0.77" height="0.77"/><rect class="cls-3" x="11.48" y="25.26" width="0.77" height="0.77"/><rect class="cls-4" x="11.48" y="24.49" width="0.77" height="0.77"/><rect class="cls-4" x="11.48" y="23.73" width="0.77" height="0.77"/><rect class="cls-3" x="11.48" y="22.96" width="0.77" height="0.77"/><rect class="cls-3" x="11.48" y="22.2" width="0.77" height="0.77"/><rect class="cls-4" x="11.48" y="21.43" width="0.77" height="0.77"/><rect class="cls-4" x="11.48" y="20.66" width="0.77" height="0.77"/><rect class="cls-3" x="11.48" y="19.9" width="0.77" height="0.77"/><rect class="cls-4" x="11.48" y="19.13" width="0.77" height="0.77"/><rect class="cls-4" x="11.48" y="18.37" width="0.77" height="0.77"/><rect class="cls-3" x="11.48" y="17.6" width="0.77" height="0.77"/><rect class="cls-3" x="11.48" y="16.84" width="0.77" height="0.77"/><rect class="cls-4" x="11.48" y="16.07" width="0.77" height="0.77"/><rect class="cls-4" x="11.48" y="15.31" width="0.77" height="0.77"/><rect class="cls-3" x="11.48" y="14.54" width="0.77" height="0.77"/><rect class="cls-4" x="11.48" y="13.78" width="0.77" height="0.77"/><rect class="cls-4" x="11.48" y="13.01" width="0.77" height="0.77"/><rect class="cls-3" x="11.48" y="12.25" width="0.77" height="0.77"/><rect class="cls-3" x="11.48" y="11.48" width="0.77" height="0.77"/><rect class="cls-2" x="11.48" y="10.72" width="0.77" height="0.77"/><rect class="cls-3" x="11.48" y="9.95" width="0.77" height="0.77"/><rect class="cls-3" x="11.48" y="9.18" width="0.77" height="0.77"/><rect class="cls-3" x="11.48" y="8.42" width="0.77" height="0.77"/><rect class="cls-3" x="11.48" y="7.65" width="0.77" height="0.77"/><rect class="cls-3" x="11.48" y="6.89" width="0.77" height="0.77"/><rect class="cls-3" x="11.48" y="6.12" width="0.77" height="0.77"/><rect class="cls-1" x="11.48" y="5.36" width="0.77" height="0.77"/><rect class="cls-1" x="11.48" y="4.59" width="0.77" height="0.77"/><rect class="cls-1" x="11.48" y="3.83" width="0.77" height="0.77"/><rect class="cls-1" x="11.48" y="3.06" width="0.77" height="0.77"/><rect class="cls-1" x="11.48" y="2.3" width="0.77" height="0.77"/><rect class="cls-1" x="11.48" y="1.53" width="0.77" height="0.77"/><rect class="cls-2" x="12.25" y="26.02" width="0.77" height="0.77"/><rect class="cls-3" x="12.25" y="25.26" width="0.77" height="0.77"/><rect class="cls-4" x="12.25" y="24.49" width="0.77" height="0.77"/><rect class="cls-4" x="12.25" y="23.73" width="0.77" height="0.77"/><rect class="cls-3" x="12.25" y="22.96" width="0.77" height="0.77"/><rect class="cls-3" x="12.25" y="22.2" width="0.77" height="0.77"/><rect class="cls-4" x="12.25" y="21.43" width="0.77" height="0.77"/><rect class="cls-4" x="12.25" y="20.66" width="0.77" height="0.77"/><rect class="cls-3" x="12.25" y="19.9" width="0.77" height="0.77"/><rect class="cls-4" x="12.25" y="19.13" width="0.77" height="0.77"/><rect class="cls-4" x="12.25" y="18.37" width="0.77" height="0.77"/><rect class="cls-3" x="12.25" y="17.6" width="0.77" height="0.77"/><rect class="cls-3" x="12.25" y="16.84" width="0.77" height="0.77"/><rect class="cls-4" x="12.25" y="16.07" width="0.77" height="0.77"/><rect class="cls-4" x="12.25" y="15.31" width="0.77" height="0.77"/><rect class="cls-3" x="12.25" y="14.54" width="0.77" height="0.77"/><rect class="cls-4" x="12.25" y="13.78" width="0.77" height="0.77"/><rect class="cls-4" x="12.25" y="13.01" width="0.77" height="0.77"/><rect class="cls-3" x="12.25" y="12.25" width="0.77" height="0.77"/><rect class="cls-3" x="12.25" y="11.48" width="0.77" height="0.77"/><rect class="cls-2" x="12.25" y="10.72" width="0.77" height="0.77"/><rect class="cls-3" x="12.25" y="9.95" width="0.77" height="0.77"/><rect class="cls-3" x="12.25" y="9.18" width="0.77" height="0.77"/><rect class="cls-3" x="12.25" y="8.42" width="0.77" height="0.77"/><rect class="cls-3" x="12.25" y="7.65" width="0.77" height="0.77"/><rect class="cls-3" x="12.25" y="6.89" width="0.77" height="0.77"/><rect class="cls-2" x="12.25" y="6.12" width="0.77" height="0.77"/><rect class="cls-1" x="12.25" y="5.36" width="0.77" height="0.77"/><rect class="cls-1" x="12.25" y="4.59" width="0.77" height="0.77"/><rect class="cls-1" x="12.25" y="3.83" width="0.77" height="0.77"/><rect class="cls-1" x="12.25" y="3.06" width="0.77" height="0.77"/><rect class="cls-1" x="12.25" y="2.3" width="0.77" height="0.77"/><rect class="cls-1" x="12.25" y="1.53" width="0.77" height="0.77"/><rect class="cls-2" x="13.01" y="25.26" width="0.77" height="0.77"/><rect class="cls-4" x="13.01" y="24.49" width="0.77" height="0.77"/><rect class="cls-4" x="13.01" y="23.73" width="0.77" height="0.77"/><rect class="cls-3" x="13.01" y="22.96" width="0.77" height="0.77"/><rect class="cls-3" x="13.01" y="22.2" width="0.77" height="0.77"/><rect class="cls-4" x="13.01" y="21.43" width="0.77" height="0.77"/><rect class="cls-4" x="13.01" y="20.66" width="0.77" height="0.77"/><rect class="cls-3" x="13.01" y="19.9" width="0.77" height="0.77"/><rect class="cls-4" x="13.01" y="19.13" width="0.77" height="0.77"/><rect class="cls-4" x="13.01" y="18.37" width="0.77" height="0.77"/><rect class="cls-3" x="13.01" y="17.6" width="0.77" height="0.77"/><rect class="cls-3" x="13.01" y="16.84" width="0.77" height="0.77"/><rect class="cls-4" x="13.01" y="16.07" width="0.77" height="0.77"/><rect class="cls-4" x="13.01" y="15.31" width="0.77" height="0.77"/><rect class="cls-3" x="13.01" y="14.54" width="0.77" height="0.77"/><rect class="cls-3" x="13.01" y="13.78" width="0.77" height="0.77"/><rect class="cls-4" x="13.01" y="13.01" width="0.77" height="0.77"/><rect class="cls-5" x="13.01" y="12.25" width="0.77" height="0.77"/><rect class="cls-5" x="13.01" y="11.48" width="0.77" height="0.77"/><rect class="cls-5" x="13.01" y="10.72" width="0.77" height="0.77"/><rect class="cls-5" x="13.01" y="9.95" width="0.77" height="0.77"/><rect class="cls-5" x="13.01" y="9.18" width="0.77" height="0.77"/><rect class="cls-3" x="13.01" y="8.42" width="0.77" height="0.77"/><rect class="cls-3" x="13.01" y="7.65" width="0.77" height="0.77"/><rect class="cls-2" x="13.01" y="6.89" width="0.77" height="0.77"/><rect class="cls-1" x="13.01" y="5.36" width="0.77" height="0.77"/><rect class="cls-1" x="13.01" y="4.59" width="0.77" height="0.77"/><rect class="cls-1" x="13.01" y="3.83" width="0.77" height="0.77"/><rect class="cls-1" x="13.01" y="3.06" width="0.77" height="0.77"/><rect class="cls-1" x="13.01" y="2.3" width="0.77" height="0.77"/><rect class="cls-2" x="13.78" y="24.49" width="0.77" height="0.77"/><rect class="cls-4" x="13.78" y="23.73" width="0.77" height="0.77"/><rect class="cls-4" x="13.78" y="22.96" width="0.77" height="0.77"/><rect class="cls-3" x="13.78" y="22.2" width="0.77" height="0.77"/><rect class="cls-4" x="13.78" y="21.43" width="0.77" height="0.77"/><rect class="cls-4" x="13.78" y="20.66" width="0.77" height="0.77"/><rect class="cls-3" x="13.78" y="19.9" width="0.77" height="0.77"/><rect class="cls-3" x="13.78" y="19.13" width="0.77" height="0.77"/><rect class="cls-4" x="13.78" y="18.37" width="0.77" height="0.77"/><rect class="cls-4" x="13.78" y="17.6" width="0.77" height="0.77"/><rect class="cls-3" x="13.78" y="16.84" width="0.77" height="0.77"/><rect class="cls-3" x="13.78" y="16.07" width="0.77" height="0.77"/><rect class="cls-4" x="13.78" y="15.31" width="0.77" height="0.77"/><rect class="cls-5" x="13.78" y="14.54" width="0.77" height="0.77"/><rect class="cls-5" x="13.78" y="13.78" width="0.77" height="0.77"/><rect class="cls-5" x="13.78" y="13.01" width="0.77" height="0.77"/><rect class="cls-6" x="13.78" y="12.25" width="0.77" height="0.77"/><rect class="cls-6" x="13.78" y="11.48" width="0.77" height="0.77"/><rect class="cls-6" x="13.78" y="10.72" width="0.77" height="0.77"/><rect class="cls-5" x="13.78" y="9.95" width="0.77" height="0.77"/><rect class="cls-2" x="13.78" y="9.18" width="0.77" height="0.77"/><rect class="cls-2" x="13.78" y="8.42" width="0.77" height="0.77"/><rect class="cls-2" x="13.78" y="7.65" width="0.77" height="0.77"/><rect class="cls-1" x="13.78" y="4.59" width="0.77" height="0.77"/><rect class="cls-1" x="13.78" y="3.83" width="0.77" height="0.77"/><rect class="cls-1" x="13.78" y="3.06" width="0.77" height="0.77"/><rect class="cls-1" x="13.78" y="1.53" width="0.77" height="0.77"/><rect class="cls-2" x="14.54" y="23.73" width="0.77" height="0.77"/><rect class="cls-2" x="14.54" y="22.96" width="0.77" height="0.77"/><rect class="cls-3" x="14.54" y="22.2" width="0.77" height="0.77"/><rect class="cls-3" x="14.54" y="21.43" width="0.77" height="0.77"/><rect class="cls-4" x="14.54" y="20.66" width="0.77" height="0.77"/><rect class="cls-4" x="14.54" y="19.9" width="0.77" height="0.77"/><rect class="cls-3" x="14.54" y="19.13" width="0.77" height="0.77"/><rect class="cls-3" x="14.54" y="18.37" width="0.77" height="0.77"/><rect class="cls-4" x="14.54" y="17.6" width="0.77" height="0.77"/><rect class="cls-4" x="14.54" y="16.84" width="0.77" height="0.77"/><rect class="cls-5" x="14.54" y="16.07" width="0.77" height="0.77"/><rect class="cls-5" x="14.54" y="15.31" width="0.77" height="0.77"/><rect class="cls-6" x="14.54" y="14.54" width="0.77" height="0.77"/><rect class="cls-6" x="14.54" y="13.78" width="0.77" height="0.77"/><rect class="cls-6" x="14.54" y="13.01" width="0.77" height="0.77"/><rect class="cls-6" x="14.54" y="12.25" width="0.77" height="0.77"/><rect class="cls-6" x="14.54" y="11.48" width="0.77" height="0.77"/><rect class="cls-5" x="14.54" y="10.72" width="0.77" height="0.77"/><rect class="cls-1" x="14.54" y="1.53" width="0.77" height="0.77"/><rect class="cls-2" x="15.31" y="22.2" width="0.77" height="0.77"/><rect class="cls-2" x="15.31" y="21.43" width="0.77" height="0.77"/><rect class="cls-2" x="15.31" y="20.66" width="0.77" height="0.77"/><rect class="cls-2" x="15.31" y="19.9" width="0.77" height="0.77"/><rect class="cls-2" x="15.31" y="19.13" width="0.77" height="0.77"/><rect class="cls-2" x="15.31" y="18.37" width="0.77" height="0.77"/><rect class="cls-5" x="15.31" y="17.6" width="0.77" height="0.77"/><rect class="cls-5" x="15.31" y="16.84" width="0.77" height="0.77"/><rect class="cls-5" x="15.31" y="16.07" width="0.77" height="0.77"/><rect class="cls-6" x="15.31" y="15.31" width="0.77" height="0.77"/><rect class="cls-6" x="15.31" y="14.54" width="0.77" height="0.77"/><rect class="cls-6" x="15.31" y="13.78" width="0.77" height="0.77"/><rect class="cls-6" x="15.31" y="13.01" width="0.77" height="0.77"/><rect class="cls-6" x="15.31" y="12.25" width="0.77" height="0.77"/><rect class="cls-5" x="15.31" y="11.48" width="0.77" height="0.77"/><rect class="cls-1" x="15.31" y="9.95" width="0.77" height="0.77"/><rect class="cls-1" x="15.31" y="0.77" width="0.77" height="0.77"/><rect class="cls-5" x="16.07" y="19.13" width="0.77" height="0.77"/><rect class="cls-5" x="16.07" y="18.37" width="0.77" height="0.77"/><rect class="cls-6" x="16.07" y="17.6" width="0.77" height="0.77"/><rect class="cls-6" x="16.07" y="16.84" width="0.77" height="0.77"/><rect class="cls-6" x="16.07" y="16.07" width="0.77" height="0.77"/><rect class="cls-6" x="16.07" y="15.31" width="0.77" height="0.77"/><rect class="cls-6" x="16.07" y="14.54" width="0.77" height="0.77"/><rect class="cls-6" x="16.07" y="13.78" width="0.77" height="0.77"/><rect class="cls-6" x="16.07" y="13.01" width="0.77" height="0.77"/><rect class="cls-5" x="16.07" y="12.25" width="0.77" height="0.77"/><rect class="cls-1" x="16.07" y="9.18" width="0.77" height="0.77"/><rect class="cls-1" x="16.07" y="0.77" width="0.77" height="0.77"/><rect class="cls-5" x="16.84" y="20.66" width="0.77" height="0.77"/><rect class="cls-5" x="16.84" y="19.9" width="0.77" height="0.77"/><rect class="cls-6" x="16.84" y="19.13" width="0.77" height="0.77"/><rect class="cls-6" x="16.84" y="18.37" width="0.77" height="0.77"/><rect class="cls-6" x="16.84" y="17.6" width="0.77" height="0.77"/><rect class="cls-6" x="16.84" y="16.84" width="0.77" height="0.77"/><rect class="cls-6" x="16.84" y="16.07" width="0.77" height="0.77"/><rect class="cls-6" x="16.84" y="15.31" width="0.77" height="0.77"/><rect class="cls-6" x="16.84" y="14.54" width="0.77" height="0.77"/><rect class="cls-6" x="16.84" y="13.78" width="0.77" height="0.77"/><rect class="cls-5" x="16.84" y="13.01" width="0.77" height="0.77"/><rect class="cls-1" x="16.84" y="8.42" width="0.77" height="0.77"/><rect class="cls-1" x="16.84" y="7.65" width="0.77" height="0.77"/><rect class="cls-1" x="16.84" width="0.77" height="0.77"/><rect class="cls-1" x="17.6" y="22.96" width="0.77" height="0.77"/><rect class="cls-1" x="17.6" y="22.2" width="0.77" height="0.77"/><rect class="cls-5" x="17.6" y="21.43" width="0.77" height="0.77"/><rect class="cls-6" x="17.6" y="20.66" width="0.77" height="0.77"/><rect class="cls-6" x="17.6" y="19.9" width="0.77" height="0.77"/><rect class="cls-6" x="17.6" y="19.13" width="0.77" height="0.77"/><rect class="cls-6" x="17.6" y="18.37" width="0.77" height="0.77"/><rect class="cls-6" x="17.6" y="17.6" width="0.77" height="0.77"/><rect class="cls-6" x="17.6" y="16.84" width="0.77" height="0.77"/><rect class="cls-6" x="17.6" y="16.07" width="0.77" height="0.77"/><rect class="cls-6" x="17.6" y="15.31" width="0.77" height="0.77"/><rect class="cls-6" x="17.6" y="14.54" width="0.77" height="0.77"/><rect class="cls-5" x="17.6" y="13.78" width="0.77" height="0.77"/><rect class="cls-1" x="17.6" y="12.25" width="0.77" height="0.77"/><rect class="cls-1" x="17.6" y="6.89" width="0.77" height="0.77"/><rect class="cls-1" x="17.6" y="6.12" width="0.77" height="0.77"/><rect class="cls-1" x="17.6" y="5.36" width="0.77" height="0.77"/><rect class="cls-1" x="17.6" y="4.59" width="0.77" height="0.77"/><rect class="cls-1" x="17.6" width="0.77" height="0.77"/><rect class="cls-1" x="18.24" y="24.49" width="0.77" height="0.77"/><rect class="cls-1" x="18.24" y="23.73" width="0.77" height="0.77"/><rect class="cls-1" x="18.24" y="22.96" width="0.77" height="0.77"/><rect class="cls-5" x="18.37" y="22.2" width="0.77" height="0.77"/><rect class="cls-6" x="18.37" y="21.43" width="0.77" height="0.77"/><rect class="cls-6" x="18.37" y="20.66" width="0.77" height="0.77"/><rect class="cls-6" x="18.37" y="19.9" width="0.77" height="0.77"/><rect class="cls-6" x="18.37" y="19.13" width="0.77" height="0.77"/><rect class="cls-6" x="18.37" y="18.37" width="0.77" height="0.77"/><rect class="cls-6" x="18.37" y="17.6" width="0.77" height="0.77"/><rect class="cls-6" x="18.37" y="16.84" width="0.77" height="0.77"/><rect class="cls-6" x="18.37" y="16.07" width="0.77" height="0.77"/><rect class="cls-6" x="18.37" y="15.31" width="0.77" height="0.77"/><rect class="cls-5" x="18.37" y="14.54" width="0.77" height="0.77"/><rect class="cls-1" x="18.37" y="12.25" width="0.77" height="0.77"/><rect class="cls-1" x="19" y="25.26" width="0.77" height="0.77"/><rect class="cls-5" x="19.13" y="22.2" width="0.77" height="0.77"/><rect class="cls-6" x="19.13" y="21.43" width="0.77" height="0.77"/><rect class="cls-6" x="19.13" y="20.66" width="0.77" height="0.77"/><rect class="cls-6" x="19.13" y="19.9" width="0.77" height="0.77"/><rect class="cls-6" x="19.13" y="19.13" width="0.77" height="0.77"/><rect class="cls-6" x="19.13" y="18.37" width="0.77" height="0.77"/><rect class="cls-6" x="19.13" y="17.6" width="0.77" height="0.77"/><rect class="cls-6" x="19.13" y="16.84" width="0.77" height="0.77"/><rect class="cls-6" x="19.13" y="16.07" width="0.77" height="0.77"/><rect class="cls-6" x="19.13" y="15.31" width="0.77" height="0.77"/><rect class="cls-5" x="19.13" y="14.54" width="0.77" height="0.77"/><rect class="cls-1" x="19.13" y="12.25" width="0.77" height="0.77"/><rect class="cls-5" x="19.9" y="22.96" width="0.77" height="0.77"/><rect class="cls-6" x="19.9" y="22.2" width="0.77" height="0.77"/><rect class="cls-6" x="19.9" y="21.43" width="0.77" height="0.77"/><rect class="cls-6" x="19.9" y="20.66" width="0.77" height="0.77"/><rect class="cls-6" x="19.9" y="19.9" width="0.77" height="0.77"/><rect class="cls-6" x="19.9" y="19.13" width="0.77" height="0.77"/><rect class="cls-6" x="19.9" y="18.37" width="0.77" height="0.77"/><rect class="cls-6" x="19.9" y="17.6" width="0.77" height="0.77"/><rect class="cls-6" x="19.9" y="16.84" width="0.77" height="0.77"/><rect class="cls-5" x="19.9" y="16.07" width="0.77" height="0.77"/><rect class="cls-5" x="19.9" y="15.31" width="0.77" height="0.77"/><rect class="cls-5" x="20.67" y="22.96" width="0.77" height="0.77"/><rect class="cls-6" x="20.67" y="22.2" width="0.77" height="0.77"/><rect class="cls-6" x="20.67" y="21.43" width="0.77" height="0.77"/><rect class="cls-6" x="20.67" y="20.66" width="0.77" height="0.77"/><rect class="cls-6" x="20.67" y="19.9" width="0.77" height="0.77"/><rect class="cls-6" x="20.67" y="19.13" width="0.77" height="0.77"/><rect class="cls-6" x="20.67" y="18.37" width="0.77" height="0.77"/><rect class="cls-6" x="20.67" y="17.6" width="0.77" height="0.77"/><rect class="cls-5" x="20.67" y="16.84" width="0.77" height="0.77"/><rect class="cls-5" x="21.43" y="22.96" width="0.77" height="0.77"/><rect class="cls-6" x="21.43" y="22.2" width="0.77" height="0.77"/><rect class="cls-6" x="21.43" y="21.43" width="0.77" height="0.77"/><rect class="cls-6" x="21.43" y="20.66" width="0.77" height="0.77"/><rect class="cls-6" x="21.43" y="19.9" width="0.77" height="0.77"/><rect class="cls-6" x="21.43" y="19.13" width="0.77" height="0.77"/><rect class="cls-5" x="21.43" y="18.37" width="0.77" height="0.77"/><rect class="cls-5" x="21.43" y="17.6" width="0.77" height="0.77"/><rect class="cls-5" x="22.2" y="22.96" width="0.77" height="0.77"/><rect class="cls-5" x="22.2" y="22.2" width="0.77" height="0.77"/><rect class="cls-5" x="22.2" y="21.43" width="0.77" height="0.77"/><rect class="cls-5" x="22.2" y="20.66" width="0.77" height="0.77"/><rect class="cls-5" x="22.2" y="19.9" width="0.77" height="0.77"/><rect class="cls-5" x="22.2" y="19.13" width="0.77" height="0.77"/></g></g></svg>