<svg id="Layer_1" data-name="Layer 1" xmlns="http://www.w3.org/2000/svg" viewBox="0 0 21 17"><title>bugOne</title><rect x="20" y="5" width="1" height="1" fill="#c4614a"/><rect x="20" y="6" width="1" height="1" fill="#c4614a"/><rect x="20" y="7" width="1" height="1" fill="#964a38"/><rect x="20" y="8" width="1" height="1" fill="#0a3b00"/><rect x="20" y="12" width="1" height="1" fill="#878787"/><rect x="19" y="4" width="1" height="1" fill="#0a3b00"/><rect x="19" y="5" width="1" height="1" fill="#964a38"/><rect x="19" y="6" width="1" height="1" fill="#964a38"/><rect x="19" y="7" width="1" height="1" fill="#29c903"/><rect x="19" y="8" width="1" height="1" fill="#1c8c03"/><rect x="19" y="9" width="1" height="1" fill="#0a3b00"/><rect x="18.95" y="10.9" width="0.9" height="0.9" fill="#878787"/><rect x="19" y="13" width="1" height="1" fill="#878787"/><rect x="19" y="14" width="1" height="1" fill="#878787"/><rect x="18" y="4" width="1" height="1" fill="#0a3b00"/><rect x="18" y="5" width="1" height="1" fill="#29c903"/><rect x="18" y="6" width="1" height="1" fill="#21a103"/><rect x="18" y="7" width="1" height="1" fill="#1c8c03"/><rect x="18" y="8" width="1" height="1" fill="#0f5700"/><rect x="18" y="9" width="1" height="1" fill="#0f4d00"/><rect x="18" y="11" width="1" height="1" fill="#878787"/><rect x="17" y="4" width="1" height="1" fill="#0a3b00"/><rect x="17" y="5" width="1" height="1" fill="#1c8c03"/><rect x="17" y="6" width="1" height="1" fill="#1c8c03"/><rect x="17" y="7" width="1" height="1" fill="#0f5700"/><rect x="17" y="8" width="1" height="1" fill="#0f4d00"/><rect x="17.15" y="10" width="0.9" height="0.9" fill="#878787"/><rect x="16" y="4" width="1" height="1" fill="#0f5700"/><rect x="16" y="5" width="1" height="1" fill="#0f4d00"/><rect x="16" y="6" width="1" height="1" fill="#0f4d00"/><rect x="16" y="7" width="1" height="1" fill="#21a103"/><rect x="16" y="8" width="1" height="1" fill="#177300"/><rect x="16" y="9" width="1" height="1" fill="#0f5700"/><rect x="16" y="12" width="1" height="1" fill="#878787"/><rect x="16" y="13" width="1" height="1" fill="#878787"/><rect x="15" y="5" width="1" height="1" fill="#0f5700"/><rect x="15" y="6" width="1" height="1" fill="#c2ff1c"/><rect x="15" y="7" width="1" height="1" fill="#6ede1a"/><rect x="15" y="8" width="1" height="1" fill="#6ede1a"/><rect x="15" y="9" width="1" height="1" fill="#21a103"/><rect x="15" y="10" width="1" height="1" fill="#0f5700"/><rect x="15" y="11" width="1" height="1" fill="#878787"/><rect x="15" y="14" width="1" height="1" fill="#878787"/><rect x="15" y="15" width="1" height="1" fill="#878787"/><rect x="15" y="16" width="1" height="1" fill="#878787"/><rect x="14" y="5" width="1" height="1" fill="#0f5700"/><rect x="14" y="6" width="1" height="1" fill="#878787"/><rect x="14" y="7" width="1" height="1" fill="#21a103"/><rect x="14" y="8" width="1" height="1" fill="#03ff63"/><rect x="14" y="9" width="1" height="1" fill="#21a103"/><rect x="14" y="10" width="1" height="1" fill="#878787"/><rect x="14" y="11" width="1" height="1" fill="#0f5700"/><rect x="13" y="4" width="1" height="1" fill="#a6a6a6"/><rect x="13" y="5" width="1" height="1" fill="#878787"/><rect x="13" y="6" width="1" height="1" fill="#dbdbdb"/><rect x="13" y="7" width="1" height="1" fill="#6ede1a"/><rect x="13" y="8" width="1" height="1" fill="#c2ff1c"/><rect x="13" y="9" width="1" height="1" fill="#c2ff1c"/><rect x="13" y="10" width="1" height="1" fill="#21a103"/><rect x="13" y="11" width="1" height="1" fill="#0f5700"/><rect x="12" y="4" width="1" height="1" fill="#a6a6a6"/><rect x="12" y="5" width="1" height="1" fill="#878787"/><rect x="12" y="6" width="1" height="1" fill="#fff"/><rect x="12" y="7" width="1" height="1" fill="#21a103"/><rect x="12" y="8" width="1" height="1" fill="#c2ff1c"/><rect x="12" y="9" width="1" height="1" fill="#6ede1a"/><rect x="12" y="10" width="1" height="1" fill="#878787"/><rect x="12" y="11" width="1" height="1" fill="#878787"/><rect x="12" y="12" width="1" height="1" fill="#878787"/><rect x="12" y="13" width="1" height="1" fill="#878787"/><rect x="12" y="14" width="1" height="1" fill="#878787"/><rect x="11" y="3" width="1" height="1" fill="#a6a6a6"/><rect x="11" y="4" width="1" height="1" fill="#878787"/><rect x="11" y="5" width="1" height="1" fill="#dbdbdb"/><rect x="11" y="6" width="1" height="1" fill="#878787"/><rect x="11" y="7" width="1" height="1" fill="#6ede1a"/><rect x="11" y="8" width="1" height="1" fill="#6ede1a"/><rect x="11" y="9" width="1" height="1" fill="#1cff78"/><rect x="11" y="10" width="1" height="1" fill="#21a103"/><rect x="11" y="11" width="1" height="1" fill="#0f5700"/><rect x="11" y="15" width="1" height="1" fill="#878787"/><rect x="10" y="3" width="1" height="1" fill="#a6a6a6"/><rect x="10" y="4" width="1" height="1" fill="#878787"/><rect x="10" y="5" width="1" height="1" fill="#fff"/><rect x="10" y="6" width="1" height="1" fill="#878787"/><rect x="10" y="7" width="1" height="1" fill="#21a103"/><rect x="10" y="8" width="1" height="1" fill="#c2ff1c"/><rect x="10" y="9" width="1" height="1" fill="#21a103"/><rect x="10" y="10" width="1" height="1" fill="#0f5700"/><rect x="10" y="11" width="1" height="1" fill="#0f4d00"/><rect x="10" y="12" width="1" height="1" fill="#0f4d00"/><rect x="10" y="15" width="1" height="1" fill="#878787"/><rect x="9" y="2" width="1" height="1" fill="#a6a6a6"/><rect x="9" y="3" width="1" height="1" fill="#fff"/><rect x="9" y="4" width="1" height="1" fill="#878787"/><rect x="9" y="5" width="1" height="1" fill="#fff"/><rect x="9" y="6" width="1" height="1" fill="#878787"/><rect x="9" y="7" width="1" height="1" fill="#0f4d00"/><rect x="9" y="8" width="1" height="1" fill="#21a103"/><rect x="9" y="9" width="1" height="1" fill="#0f5700"/><rect x="9" y="10" width="1" height="1" fill="#177300"/><rect x="9" y="11" width="1" height="1" fill="#21a103"/><rect x="9" y="12" width="1" height="1" fill="#177300"/><rect x="9" y="13" width="1" height="1" fill="#0f4d00"/><rect x="9" y="16" width="1" height="1" fill="#878787"/><rect x="8" y="1" width="1" height="1" fill="#a6a6a6"/><rect x="8" y="2" width="1" height="1" fill="#c2c2c2"/><rect x="8" y="3" width="1" height="1" fill="#878787"/><rect x="8" y="4" width="1" height="1" fill="#dbdbdb"/><rect x="8" y="5" width="1" height="1" fill="#c9c9c9"/><rect x="8" y="6" width="1" height="1" fill="#878787"/><rect x="8" y="8" width="1" height="1" fill="#0f5700"/><rect x="8" y="9" width="1" height="1" fill="#177300"/><rect x="8" y="10" width="1" height="1" fill="#03ff66"/><rect x="8" y="11" width="1" height="1" fill="#6ede1a"/><rect x="8" y="12" width="1" height="1" fill="#21a103"/><rect x="8" y="13" width="1" height="1" fill="#0f4d00"/><rect x="7" y="1" width="1" height="1" fill="#a6a6a6"/><rect x="7" y="2" width="1" height="1" fill="#fff"/><rect x="7" y="3" width="1" height="1" fill="#878787"/><rect x="7" y="4" width="1" height="1" fill="#fff"/><rect x="7" y="5" width="1" height="1" fill="#c9c9c9"/><rect x="7" y="6" width="1" height="1" fill="#878787"/><rect x="7" y="8" width="1" height="1" fill="#0f4d00"/><rect x="7" y="9" width="1" height="1" fill="#c2ff1c"/><rect x="7" y="10" width="1" height="1" fill="#6ede1a"/><rect x="7" y="11" width="1" height="1" fill="#c2ff1c"/><rect x="7" y="12" width="1" height="1" fill="#21a103"/><rect x="7" y="13" width="1" height="1" fill="#0f4d00"/><rect x="6" width="1" height="1" fill="#a6a6a6"/><rect x="6" y="1" width="1" height="1" fill="#c2c2c2"/><rect x="6" y="2" width="1" height="1" fill="#fff"/><rect x="6" y="3" width="1" height="1" fill="#878787"/><rect x="6" y="4" width="1" height="1" fill="#fff"/><rect x="6" y="5" width="1" height="1" fill="#dbdbdb"/><rect x="6" y="6" width="1" height="1" fill="#878787"/><rect x="6" y="8" width="1" height="1" fill="#0f4d00"/><rect x="6" y="9" width="1" height="1" fill="#1cff78"/><rect x="6" y="10" width="1" height="1" fill="#6ede1a"/><rect x="6" y="14" width="1" height="1" fill="#0f4d00"/><rect x="6" y="13" width="1" height="1" fill="#177300"/><rect x="6" y="12" width="1" height="1" fill="#6ede1a"/><rect x="6" y="11" width="1" height="1" fill="#c2ff1c"/><rect x="5" width="1" height="1" fill="#a6a6a6"/><rect x="5" y="1" width="1" height="1" fill="#fff"/><rect x="5" y="2" width="1" height="1" fill="#878787"/><rect x="5" y="3" width="1" height="1" fill="#dbdbdb"/><rect x="5" y="4" width="1" height="1" fill="#c9c9c9"/><rect x="5" y="5" width="1" height="1" fill="#fff"/><rect x="5" y="6" width="1" height="1" fill="#878787"/><rect x="5" y="8" width="1" height="1" fill="#0f4d00"/><rect x="5" y="9" width="1" height="1" fill="#0f4d00"/><rect x="5" y="10" width="1" height="1" fill="#1cff78"/><rect x="5" y="14" width="1" height="1" fill="#0f4d00"/><rect x="5" y="13" width="1" height="1" fill="#6ede1a"/><rect x="5" y="12" width="1" height="1" fill="#21a103"/><rect x="5" y="11" width="1" height="1" fill="#6ede1a"/><rect x="4" width="1" height="1" fill="#a6a6a6"/><rect x="4" y="1" width="1" height="1" fill="#c2c2c2"/><rect x="4" y="2" width="1" height="1" fill="#878787"/><rect x="4" y="3" width="1" height="1" fill="#fff"/><rect x="4" y="4" width="1" height="1" fill="#c9c9c9"/><rect x="4" y="5" width="1" height="1" fill="#dbdbdb"/><rect x="4" y="6" width="1" height="1" fill="#878787"/><rect x="4" y="10" width="1" height="1" fill="#0f4d00"/><rect x="4" y="13" width="1" height="1" fill="#0f4d00"/><rect x="4" y="12" width="1" height="1" fill="#0f4d00"/><rect x="4" y="11" width="1" height="1" fill="#0f4d00"/><rect x="3" width="1" height="1" fill="#a6a6a6"/><rect x="3" y="1" width="1" height="1" fill="#c2c2c2"/><rect x="3" y="2" width="1" height="1" fill="#878787"/><rect x="3" y="3" width="1" height="1" fill="#c9c9c9"/><rect x="3" y="4" width="1" height="1" fill="#fff"/><rect x="3" y="5" width="1" height="1" fill="#878787"/><rect x="2" width="1" height="1" fill="#a6a6a6"/><rect x="2" y="1" width="1" height="1" fill="#fff"/><rect x="2" y="2" width="1" height="1" fill="#878787"/><rect x="2" y="3" width="1" height="1" fill="#fff"/><rect x="2" y="4" width="1" height="1" fill="#c9c9c9"/><rect x="2" y="5" width="1" height="1" fill="#878787"/><rect x="1" width="1" height="1" fill="#a6a6a6"/><rect x="1" y="1" width="1" height="1" fill="#a6a6a6"/><rect x="1" y="2" width="1" height="1" fill="#878787"/><rect x="1" y="3" width="1" height="1" fill="#dbdbdb"/><rect x="1" y="4" width="1" height="1" fill="#878787"/><rect y="2" width="1" height="1" fill="#878787"/><rect y="3" width="1" height="1" fill="#878787"/></svg>