<svg id="Layer_1" data-name="Layer 1" xmlns="http://www.w3.org/2000/svg" viewBox="0 0 21 17"><title>bugTwo</title><rect y="5" width="1" height="1" fill="#c4614a"/><rect y="6" width="1" height="1" fill="#c4614a"/><rect y="7" width="1" height="1" fill="#964a38"/><rect y="8" width="1" height="1" fill="#0a3b00"/><rect y="12" width="1" height="1" fill="#878787"/><rect x="1" y="4" width="1" height="1" fill="#0a3b00"/><rect x="1" y="5" width="1" height="1" fill="#964a38"/><rect x="1" y="6" width="1" height="1" fill="#964a38"/><rect x="1" y="7" width="1" height="1" fill="#29c903"/><rect x="1" y="8" width="1" height="1" fill="#1c8c03"/><rect x="1" y="9" width="1" height="1" fill="#0a3b00"/><rect x="1.15" y="10.9" width="0.9" height="0.9" fill="#878787"/><rect x="1" y="13" width="1" height="1" fill="#878787"/><rect x="1" y="14" width="1" height="1" fill="#878787"/><rect x="2" y="4" width="1" height="1" fill="#0a3b00"/><rect x="2" y="5" width="1" height="1" fill="#29c903"/><rect x="2" y="6" width="1" height="1" fill="#21a103"/><rect x="2" y="7" width="1" height="1" fill="#1c8c03"/><rect x="2" y="8" width="1" height="1" fill="#0f5700"/><rect x="2" y="9" width="1" height="1" fill="#0f4d00"/><rect x="2" y="11" width="1" height="1" fill="#878787"/><rect x="3" y="4" width="1" height="1" fill="#0a3b00"/><rect x="3" y="5" width="1" height="1" fill="#1c8c03"/><rect x="3" y="6" width="1" height="1" fill="#1c8c03"/><rect x="3" y="7" width="1" height="1" fill="#0f5700"/><rect x="3" y="8" width="1" height="1" fill="#0f4d00"/><rect x="2.95" y="10" width="0.9" height="0.9" fill="#878787"/><rect x="4" y="4" width="1" height="1" fill="#0f5700"/><rect x="4" y="5" width="1" height="1" fill="#0f4d00"/><rect x="4" y="6" width="1" height="1" fill="#0f4d00"/><rect x="4" y="7" width="1" height="1" fill="#21a103"/><rect x="4" y="8" width="1" height="1" fill="#177300"/><rect x="4" y="9" width="1" height="1" fill="#0f5700"/><rect x="4" y="12" width="1" height="1" fill="#878787"/><rect x="4" y="13" width="1" height="1" fill="#878787"/><rect x="5" y="5" width="1" height="1" fill="#0f5700"/><rect x="5" y="6" width="1" height="1" fill="#c2ff1c"/><rect x="5" y="7" width="1" height="1" fill="#6ede1a"/><rect x="5" y="8" width="1" height="1" fill="#6ede1a"/><rect x="5" y="9" width="1" height="1" fill="#21a103"/><rect x="5" y="10" width="1" height="1" fill="#0f5700"/><rect x="5" y="11" width="1" height="1" fill="#878787"/><rect x="5" y="14" width="1" height="1" fill="#878787"/><rect x="5" y="15" width="1" height="1" fill="#878787"/><rect x="5" y="16" width="1" height="1" fill="#878787"/><rect x="6" y="5" width="1" height="1" fill="#0f5700"/><rect x="6" y="6" width="1" height="1" fill="#878787"/><rect x="6" y="7" width="1" height="1" fill="#21a103"/><rect x="6" y="8" width="1" height="1" fill="#03ff63"/><rect x="6" y="9" width="1" height="1" fill="#21a103"/><rect x="6" y="10" width="1" height="1" fill="#878787"/><rect x="6" y="11" width="1" height="1" fill="#0f5700"/><rect x="7" y="4" width="1" height="1" fill="#a6a6a6"/><rect x="7" y="5" width="1" height="1" fill="#878787"/><rect x="7" y="6" width="1" height="1" fill="#dbdbdb"/><rect x="7" y="7" width="1" height="1" fill="#6ede1a"/><rect x="7" y="8" width="1" height="1" fill="#c2ff1c"/><rect x="7" y="9" width="1" height="1" fill="#c2ff1c"/><rect x="7" y="10" width="1" height="1" fill="#21a103"/><rect x="7" y="11" width="1" height="1" fill="#0f5700"/><rect x="8" y="4" width="1" height="1" fill="#a6a6a6"/><rect x="8" y="5" width="1" height="1" fill="#878787"/><rect x="8" y="6" width="1" height="1" fill="#fff"/><rect x="8" y="7" width="1" height="1" fill="#21a103"/><rect x="8" y="8" width="1" height="1" fill="#c2ff1c"/><rect x="8" y="9" width="1" height="1" fill="#6ede1a"/><rect x="8" y="10" width="1" height="1" fill="#878787"/><rect x="8" y="11" width="1" height="1" fill="#878787"/><rect x="8" y="12" width="1" height="1" fill="#878787"/><rect x="8" y="13" width="1" height="1" fill="#878787"/><rect x="8" y="14" width="1" height="1" fill="#878787"/><rect x="9" y="3" width="1" height="1" fill="#a6a6a6"/><rect x="9" y="4" width="1" height="1" fill="#878787"/><rect x="9" y="5" width="1" height="1" fill="#dbdbdb"/><rect x="9" y="6" width="1" height="1" fill="#878787"/><rect x="9" y="7" width="1" height="1" fill="#6ede1a"/><rect x="9" y="8" width="1" height="1" fill="#6ede1a"/><rect x="9" y="9" width="1" height="1" fill="#1cff78"/><rect x="9" y="10" width="1" height="1" fill="#21a103"/><rect x="9" y="11" width="1" height="1" fill="#0f5700"/><rect x="9" y="15" width="1" height="1" fill="#878787"/><rect x="10" y="3" width="1" height="1" fill="#a6a6a6"/><rect x="10" y="4" width="1" height="1" fill="#878787"/><rect x="10" y="5" width="1" height="1" fill="#fff"/><rect x="10" y="6" width="1" height="1" fill="#878787"/><rect x="10" y="7" width="1" height="1" fill="#21a103"/><rect x="10" y="8" width="1" height="1" fill="#c2ff1c"/><rect x="10" y="9" width="1" height="1" fill="#21a103"/><rect x="10" y="10" width="1" height="1" fill="#0f5700"/><rect x="10" y="11" width="1" height="1" fill="#0f4d00"/><rect x="10" y="12" width="1" height="1" fill="#0f4d00"/><rect x="10" y="15" width="1" height="1" fill="#878787"/><rect x="11" y="2" width="1" height="1" fill="#a6a6a6"/><rect x="11" y="3" width="1" height="1" fill="#fff"/><rect x="11" y="4" width="1" height="1" fill="#878787"/><rect x="11" y="5" width="1" height="1" fill="#fff"/><rect x="11" y="6" width="1" height="1" fill="#878787"/><rect x="11" y="7" width="1" height="1" fill="#0f4d00"/><rect x="11" y="8" width="1" height="1" fill="#21a103"/><rect x="11" y="9" width="1" height="1" fill="#0f5700"/><rect x="11" y="10" width="1" height="1" fill="#177300"/><rect x="11" y="11" width="1" height="1" fill="#21a103"/><rect x="11" y="12" width="1" height="1" fill="#177300"/><rect x="11" y="13" width="1" height="1" fill="#0f4d00"/><rect x="11" y="16" width="1" height="1" fill="#878787"/><rect x="12" y="1" width="1" height="1" fill="#a6a6a6"/><rect x="12" y="2" width="1" height="1" fill="#c2c2c2"/><rect x="12" y="3" width="1" height="1" fill="#878787"/><rect x="12" y="4" width="1" height="1" fill="#dbdbdb"/><rect x="12" y="5" width="1" height="1" fill="#c9c9c9"/><rect x="12" y="6" width="1" height="1" fill="#878787"/><rect x="12" y="8" width="1" height="1" fill="#0f5700"/><rect x="12" y="9" width="1" height="1" fill="#177300"/><rect x="12" y="10" width="1" height="1" fill="#03ff66"/><rect x="12" y="11" width="1" height="1" fill="#6ede1a"/><rect x="12" y="12" width="1" height="1" fill="#21a103"/><rect x="12" y="13" width="1" height="1" fill="#0f4d00"/><rect x="13" y="1" width="1" height="1" fill="#a6a6a6"/><rect x="13" y="2" width="1" height="1" fill="#fff"/><rect x="13" y="3" width="1" height="1" fill="#878787"/><rect x="13" y="4" width="1" height="1" fill="#fff"/><rect x="13" y="5" width="1" height="1" fill="#c9c9c9"/><rect x="13" y="6" width="1" height="1" fill="#878787"/><rect x="13" y="8" width="1" height="1" fill="#0f4d00"/><rect x="13" y="9" width="1" height="1" fill="#c2ff1c"/><rect x="13" y="10" width="1" height="1" fill="#6ede1a"/><rect x="13" y="11" width="1" height="1" fill="#c2ff1c"/><rect x="13" y="12" width="1" height="1" fill="#21a103"/><rect x="13" y="13" width="1" height="1" fill="#0f4d00"/><rect x="14" width="1" height="1" fill="#a6a6a6"/><rect x="14" y="1" width="1" height="1" fill="#c2c2c2"/><rect x="14" y="2" width="1" height="1" fill="#fff"/><rect x="14" y="3" width="1" height="1" fill="#878787"/><rect x="14" y="4" width="1" height="1" fill="#fff"/><rect x="14" y="5" width="1" height="1" fill="#dbdbdb"/><rect x="14" y="6" width="1" height="1" fill="#878787"/><rect x="14" y="8" width="1" height="1" fill="#0f4d00"/><rect x="14" y="9" width="1" height="1" fill="#1cff78"/><rect x="14" y="10" width="1" height="1" fill="#6ede1a"/><rect x="14" y="14" width="1" height="1" fill="#0f4d00"/><rect x="14" y="13" width="1" height="1" fill="#177300"/><rect x="14" y="12" width="1" height="1" fill="#6ede1a"/><rect x="14" y="11" width="1" height="1" fill="#c2ff1c"/><rect x="15" width="1" height="1" fill="#a6a6a6"/><rect x="15" y="1" width="1" height="1" fill="#fff"/><rect x="15" y="2" width="1" height="1" fill="#878787"/><rect x="15" y="3" width="1" height="1" fill="#dbdbdb"/><rect x="15" y="4" width="1" height="1" fill="#c9c9c9"/><rect x="15" y="5" width="1" height="1" fill="#fff"/><rect x="15" y="6" width="1" height="1" fill="#878787"/><rect x="15" y="8" width="1" height="1" fill="#0f4d00"/><rect x="15" y="9" width="1" height="1" fill="#0f4d00"/><rect x="15" y="10" width="1" height="1" fill="#1cff78"/><rect x="15" y="14" width="1" height="1" fill="#0f4d00"/><rect x="15" y="13" width="1" height="1" fill="#6ede1a"/><rect x="15" y="12" width="1" height="1" fill="#21a103"/><rect x="15" y="11" width="1" height="1" fill="#6ede1a"/><rect x="16" width="1" height="1" fill="#a6a6a6"/><rect x="16" y="1" width="1" height="1" fill="#c2c2c2"/><rect x="16" y="2" width="1" height="1" fill="#878787"/><rect x="16" y="3" width="1" height="1" fill="#fff"/><rect x="16" y="4" width="1" height="1" fill="#c9c9c9"/><rect x="16" y="5" width="1" height="1" fill="#dbdbdb"/><rect x="16" y="6" width="1" height="1" fill="#878787"/><rect x="16" y="10" width="1" height="1" fill="#0f4d00"/><rect x="16" y="13" width="1" height="1" fill="#0f4d00"/><rect x="16" y="12" width="1" height="1" fill="#0f4d00"/><rect x="16" y="11" width="1" height="1" fill="#0f4d00"/><rect x="17" width="1" height="1" fill="#a6a6a6"/><rect x="17" y="1" width="1" height="1" fill="#c2c2c2"/><rect x="17" y="2" width="1" height="1" fill="#878787"/><rect x="17" y="3" width="1" height="1" fill="#c9c9c9"/><rect x="17" y="4" width="1" height="1" fill="#fff"/><rect x="17" y="5" width="1" height="1" fill="#878787"/><rect x="18" width="1" height="1" fill="#a6a6a6"/><rect x="18" y="1" width="1" height="1" fill="#fff"/><rect x="18" y="2" width="1" height="1" fill="#878787"/><rect x="18" y="3" width="1" height="1" fill="#fff"/><rect x="18" y="4" width="1" height="1" fill="#c9c9c9"/><rect x="18" y="5" width="1" height="1" fill="#878787"/><rect x="19" width="1" height="1" fill="#a6a6a6"/><rect x="19" y="1" width="1" height="1" fill="#a6a6a6"/><rect x="19" y="2" width="1" height="1" fill="#878787"/><rect x="19" y="3" width="1" height="1" fill="#dbdbdb"/><rect x="19" y="4" width="1" height="1" fill="#878787"/><rect x="20" y="2" width="1" height="1" fill="#878787"/><rect x="20" y="3" width="1" height="1" fill="#878787"/></svg>