<svg id="Clouds" data-name="Réteg 1" xmlns="http://www.w3.org/2000/svg" viewBox="0 0 244.23 75.26"><defs><style>.cls-1{fill:#9d9d9c;}.cls-2{fill:#dadada;}.cls-3{fill:#fff;}</style></defs><title>clouds</title><rect class="cls-1" x="237.22" y="68.16" width="7.01" height="7.1"/><rect class="cls-1" x="237.22" y="61.05" width="7.01" height="7.1"/><rect class="cls-1" x="230.21" y="68.16" width="7.01" height="7.1"/><rect class="cls-1" x="230.21" y="61.05" width="7.01" height="7.11"/><rect class="cls-2" x="230.21" y="53.95" width="7.01" height="7.1"/><rect class="cls-2" x="230.21" y="46.85" width="7.01" height="7.11"/><rect class="cls-1" x="223.2" y="68.16" width="7.01" height="7.1"/><rect class="cls-1" x="223.2" y="61.05" width="7.01" height="7.11"/><rect class="cls-2" x="223.2" y="53.95" width="7.01" height="7.1"/><rect class="cls-3" x="223.2" y="46.85" width="7.01" height="7.11"/><rect class="cls-3" x="223.2" y="39.74" width="7.01" height="7.11"/><rect class="cls-1" x="216.18" y="68.16" width="7.01" height="7.1"/><rect class="cls-2" x="216.19" y="61.05" width="7.01" height="7.11"/><rect class="cls-2" x="216.19" y="53.95" width="7.01" height="7.1"/><rect class="cls-3" x="216.19" y="46.85" width="7.01" height="7.11"/><rect class="cls-3" x="216.19" y="39.74" width="7.01" height="7.11"/><rect class="cls-1" x="209.18" y="68.16" width="7" height="7.1"/><rect class="cls-2" x="209.18" y="61.05" width="7" height="7.11"/><rect class="cls-2" x="209.18" y="53.95" width="7" height="7.1"/><rect class="cls-3" x="209.18" y="46.85" width="7" height="7.11"/><rect class="cls-3" x="209.18" y="39.74" width="7" height="7.11"/><rect class="cls-1" x="202.17" y="68.16" width="7.01" height="7.1"/><rect class="cls-2" x="202.17" y="61.05" width="7.01" height="7.11"/><rect class="cls-2" x="202.17" y="53.95" width="7.01" height="7.1"/><rect class="cls-3" x="202.17" y="46.85" width="7.01" height="7.11"/><rect class="cls-3" x="202.17" y="39.74" width="7.01" height="7.11"/><rect class="cls-1" x="195.16" y="68.16" width="7.01" height="7.1"/><rect class="cls-2" x="195.16" y="61.05" width="7.01" height="7.11"/><rect class="cls-2" x="195.16" y="53.95" width="7.01" height="7.1"/><rect class="cls-3" x="195.16" y="46.85" width="7.01" height="7.11"/><rect class="cls-1" x="188.15" y="68.16" width="7.01" height="7.1"/><rect class="cls-2" x="188.15" y="61.05" width="7.01" height="7.11"/><rect class="cls-2" x="188.15" y="53.95" width="7.01" height="7.1"/><rect class="cls-3" x="188.15" y="46.85" width="7.01" height="7.11"/><rect class="cls-1" x="181.14" y="68.16" width="7" height="7.1"/><rect class="cls-2" x="181.14" y="61.05" width="7" height="7.11"/><rect class="cls-2" x="181.14" y="53.95" width="7" height="7.1"/><rect class="cls-1" x="174.13" y="68.16" width="7.01" height="7.1"/><rect class="cls-2" x="174.13" y="61.05" width="7.01" height="7.11"/><rect class="cls-3" x="174.13" y="53.95" width="7.01" height="7.1"/><rect class="cls-1" x="167.08" y="68.16" width="7.05" height="7.1"/><rect class="cls-2" x="167.08" y="61.05" width="7.05" height="7.11"/><rect class="cls-3" x="167.08" y="53.95" width="7.05" height="7.1"/><rect class="cls-1" x="160.08" y="68.16" width="7" height="7.1"/><rect class="cls-2" x="160.08" y="61.05" width="7" height="7.11"/><rect class="cls-3" x="160.08" y="53.95" width="7" height="7.1"/><rect class="cls-2" x="153.07" y="61.05" width="7.01" height="7.11"/><rect class="cls-3" x="153.07" y="53.95" width="7.01" height="7.1"/><rect class="cls-2" x="146.06" y="61.05" width="7.01" height="7.11"/><rect class="cls-3" x="146.06" y="53.95" width="7.01" height="7.1"/><rect class="cls-1" y="23.96" width="5.85" height="6.02"/><rect class="cls-1" x="5.86" y="29.98" width="5.85" height="5.99"/><rect class="cls-1" x="5.86" y="23.96" width="5.85" height="6.02"/><rect class="cls-1" x="5.86" y="17.97" width="5.85" height="5.99"/><rect class="cls-1" x="11.7" y="29.98" width="5.86" height="5.99"/><rect class="cls-1" x="11.7" y="23.96" width="5.86" height="6.02"/><rect class="cls-2" x="11.7" y="17.97" width="5.86" height="5.99"/><rect class="cls-2" x="11.7" y="11.98" width="5.86" height="5.99"/><rect class="cls-1" x="17.55" y="29.98" width="5.86" height="5.99"/><rect class="cls-1" x="17.55" y="23.96" width="5.86" height="6.02"/><rect class="cls-2" x="17.55" y="17.97" width="5.86" height="5.99"/><rect class="cls-2" x="17.55" y="11.98" width="5.86" height="5.99"/><rect class="cls-2" x="17.55" y="5.99" width="5.86" height="5.99"/><rect class="cls-1" x="23.41" y="29.98" width="5.85" height="5.99"/><rect class="cls-1" x="23.41" y="23.96" width="5.85" height="6.02"/><rect class="cls-2" x="23.41" y="17.97" width="5.85" height="5.99"/><rect class="cls-2" x="23.41" y="11.98" width="5.85" height="5.99"/><rect class="cls-2" x="23.41" y="5.99" width="5.85" height="5.99"/><rect class="cls-1" x="29.26" y="29.98" width="5.85" height="5.99"/><rect class="cls-1" x="29.26" y="23.96" width="5.85" height="6.02"/><rect class="cls-2" x="29.26" y="17.97" width="5.85" height="5.99"/><rect class="cls-2" x="29.26" y="11.98" width="5.85" height="5.99"/><rect class="cls-3" x="29.26" y="5.99" width="5.85" height="5.99"/><rect class="cls-1" x="35.11" y="35.98" width="5.86" height="5.99"/><rect class="cls-1" x="35.11" y="29.98" width="5.86" height="5.99"/><rect class="cls-1" x="35.11" y="23.96" width="5.86" height="6.02"/><rect class="cls-2" x="35.11" y="17.97" width="5.86" height="5.99"/><rect class="cls-3" x="35.11" y="11.98" width="5.86" height="5.99"/><rect class="cls-3" x="35.11" y="5.99" width="5.86" height="5.99"/><rect class="cls-1" x="40.96" y="35.98" width="5.89" height="5.99"/><rect class="cls-1" x="40.96" y="29.98" width="5.89" height="5.99"/><rect class="cls-2" x="40.96" y="23.96" width="5.89" height="6.02"/><rect class="cls-2" x="40.96" y="17.97" width="5.89" height="5.99"/><rect class="cls-3" x="40.96" y="11.98" width="5.89" height="5.99"/><rect class="cls-3" x="40.96" y="5.99" width="5.89" height="5.99"/><rect class="cls-1" x="46.85" y="35.98" width="5.85" height="5.99"/><rect class="cls-1" x="46.85" y="29.98" width="5.85" height="5.99"/><rect class="cls-2" x="46.85" y="23.96" width="5.85" height="6.02"/><rect class="cls-2" x="46.85" y="17.97" width="5.85" height="5.99"/><rect class="cls-3" x="46.85" y="11.98" width="5.85" height="5.99"/><rect class="cls-3" x="46.85" y="5.99" width="5.85" height="5.99"/><rect class="cls-3" x="46.85" width="5.85" height="5.99"/><rect class="cls-1" x="52.7" y="35.98" width="5.86" height="5.99"/><rect class="cls-1" x="52.7" y="29.98" width="5.86" height="5.99"/><rect class="cls-2" x="52.7" y="23.96" width="5.86" height="6.02"/><rect class="cls-2" x="52.7" y="17.97" width="5.86" height="5.99"/><rect class="cls-3" x="52.7" y="11.98" width="5.86" height="5.99"/><rect class="cls-3" x="52.7" y="5.99" width="5.86" height="5.99"/><rect class="cls-3" x="52.7" width="5.85" height="5.99"/><rect class="cls-1" x="58.55" y="35.98" width="5.85" height="5.99"/><rect class="cls-2" x="58.55" y="29.98" width="5.85" height="5.99"/><rect class="cls-2" x="58.55" y="23.96" width="5.85" height="6.02"/><rect class="cls-2" x="58.55" y="17.97" width="5.85" height="5.99"/><rect class="cls-3" x="58.55" y="11.98" width="5.85" height="5.99"/><rect class="cls-3" x="58.55" y="5.99" width="5.85" height="5.99"/><rect class="cls-3" x="58.56" width="5.85" height="5.99"/><rect class="cls-1" x="64.41" y="35.98" width="5.86" height="5.99"/><rect class="cls-2" x="64.41" y="29.98" width="5.86" height="5.99"/><rect class="cls-2" x="64.41" y="23.96" width="5.86" height="6.02"/><rect class="cls-3" x="64.41" y="17.97" width="5.86" height="5.99"/><rect class="cls-3" x="64.41" y="11.98" width="5.86" height="5.99"/><rect class="cls-3" x="64.41" y="5.99" width="5.86" height="5.99"/><rect class="cls-1" x="70.26" y="35.98" width="5.86" height="5.99"/><rect class="cls-2" x="70.26" y="29.98" width="5.86" height="5.99"/><rect class="cls-2" x="70.26" y="23.96" width="5.86" height="6.02"/><rect class="cls-3" x="70.26" y="17.97" width="5.86" height="5.99"/><rect class="cls-3" x="70.26" y="11.98" width="5.86" height="5.99"/><rect class="cls-3" x="70.26" y="5.99" width="5.86" height="5.99"/><rect class="cls-1" x="76.12" y="35.98" width="5.85" height="5.99"/><rect class="cls-2" x="76.12" y="29.98" width="5.85" height="5.99"/><rect class="cls-2" x="76.12" y="23.96" width="5.85" height="6.02"/><rect class="cls-3" x="76.12" y="17.97" width="5.85" height="5.99"/><rect class="cls-2" x="81.96" y="29.98" width="5.85" height="5.99"/><rect class="cls-2" x="81.96" y="23.96" width="5.85" height="6.02"/><rect class="cls-3" x="81.96" y="17.97" width="5.85" height="5.99"/><rect class="cls-2" x="87.82" y="29.98" width="5.86" height="5.99"/><rect class="cls-2" x="87.82" y="23.96" width="5.86" height="6.02"/><rect class="cls-3" x="87.82" y="17.97" width="5.86" height="5.99"/><rect class="cls-2" x="93.67" y="29.98" width="5.86" height="5.99"/><rect class="cls-2" x="93.67" y="23.96" width="5.86" height="6.02"/></svg>