<svg id="FLowers" class="decorator" data-name="Réteg 1" xmlns="http://www.w3.org/2000/svg" viewBox="0 0 44.09 29"><defs><style>.cls-1{fill:#607e14;}.cls-2{fill:#93c01f;}.cls-3{fill:#9a1006;}.cls-4{fill:#e20613;}.cls-5{fill:#ffdb00;}.cls-6{fill:#fff054;}.cls-7{fill:#cbcbcb;}.cls-8{fill:#ececec;}</style></defs><title>flower</title><rect class="cls-1" x="12.93" y="12.68" width="1.62" height="1.81"/><rect class="cls-1" x="9.7" y="12.68" width="1.62" height="1.81"/><rect class="cls-1" x="11.32" y="12.68" width="1.61" height="1.81"/><rect class="cls-1" x="4.85" y="12.68" width="1.62" height="1.81"/><rect class="cls-2" x="4.85" y="10.87" width="1.62" height="1.81"/><rect class="cls-2" x="3.23" y="10.87" width="1.62" height="1.81"/><rect class="cls-1" x="1.61" y="12.68" width="1.62" height="1.81"/><rect class="cls-1" x="3.23" y="12.68" width="1.62" height="1.81"/><rect class="cls-2" x="1.61" y="10.87" width="1.62" height="1.81"/><rect class="cls-2" x="9.7" y="10.87" width="1.62" height="1.81"/><rect class="cls-2" x="11.32" y="10.87" width="1.61" height="1.81"/><rect class="cls-2" x="12.93" y="10.87" width="1.62" height="1.81"/><rect class="cls-3" x="14.55" y="3.62" width="1.62" height="1.81"/><rect class="cls-4" x="14.55" y="1.81" width="1.62" height="1.81"/><rect class="cls-3" x="12.93" y="3.62" width="1.62" height="1.81"/><rect class="cls-4" x="12.93" y="1.81" width="1.62" height="1.81"/><rect class="cls-3" x="11.32" y="3.62" width="1.61" height="1.81"/><rect class="cls-4" x="11.32" y="1.81" width="1.61" height="1.81"/><rect class="cls-3" x="9.7" y="5.44" width="1.62" height="1.81"/><rect class="cls-4" x="9.7" y="3.62" width="1.62" height="1.81"/><rect class="cls-5" x="9.7" y="1.81" width="1.62" height="1.81"/><rect class="cls-5" x="9.7" width="1.62" height="1.81"/><rect class="cls-2" x="8.08" y="16.31" width="1.62" height="1.81"/><rect class="cls-2" x="8.08" y="14.5" width="1.62" height="1.81"/><rect class="cls-2" x="8.08" y="12.68" width="1.62" height="1.81"/><rect class="cls-2" x="8.08" y="10.87" width="1.62" height="1.81"/><rect class="cls-2" x="8.08" y="9.06" width="1.62" height="1.81"/><rect class="cls-2" x="8.08" y="7.25" width="1.62" height="1.81"/><rect class="cls-3" x="8.08" y="5.44" width="1.62" height="1.81"/><rect class="cls-4" x="8.08" y="3.62" width="1.62" height="1.81"/><rect class="cls-5" x="8.08" y="1.81" width="1.62" height="1.81"/><rect class="cls-5" x="8.08" width="1.62" height="1.81"/><rect class="cls-2" x="6.46" y="16.31" width="1.61" height="1.81"/><rect class="cls-2" x="6.46" y="14.5" width="1.61" height="1.81"/><rect class="cls-2" x="6.46" y="12.68" width="1.61" height="1.81"/><rect class="cls-2" x="6.46" y="10.87" width="1.61" height="1.81"/><rect class="cls-2" x="6.46" y="9.06" width="1.61" height="1.81"/><rect class="cls-2" x="6.46" y="7.25" width="1.61" height="1.81"/><rect class="cls-2" x="8.08" y="27.19" width="1.62" height="1.81"/><rect class="cls-2" x="8.08" y="25.37" width="1.62" height="1.81"/><rect class="cls-2" x="8.08" y="23.56" width="1.62" height="1.81"/><rect class="cls-2" x="8.08" y="21.75" width="1.62" height="1.81"/><rect class="cls-2" x="8.08" y="19.94" width="1.62" height="1.81"/><rect class="cls-2" x="8.08" y="18.12" width="1.62" height="1.81"/><rect class="cls-2" x="6.46" y="27.19" width="1.61" height="1.81"/><rect class="cls-2" x="6.46" y="25.37" width="1.61" height="1.81"/><rect class="cls-2" x="6.46" y="23.56" width="1.61" height="1.81"/><rect class="cls-2" x="6.46" y="21.75" width="1.61" height="1.81"/><rect class="cls-2" x="6.46" y="19.94" width="1.61" height="1.81"/><rect class="cls-2" x="6.46" y="18.12" width="1.61" height="1.81"/><rect class="cls-3" x="6.46" y="5.44" width="1.61" height="1.81"/><rect class="cls-4" x="6.46" y="3.62" width="1.61" height="1.81"/><rect class="cls-5" x="6.46" y="1.81" width="1.61" height="1.81"/><rect class="cls-6" x="6.46" width="1.61" height="1.81"/><rect class="cls-3" x="4.85" y="5.44" width="1.62" height="1.81"/><rect class="cls-4" x="4.85" y="3.62" width="1.62" height="1.81"/><rect class="cls-6" x="4.85" y="1.81" width="1.62" height="1.81"/><rect class="cls-6" x="4.85" width="1.62" height="1.81"/><rect class="cls-3" x="3.23" y="3.62" width="1.62" height="1.81"/><rect class="cls-4" x="3.23" y="1.81" width="1.62" height="1.81"/><rect class="cls-3" x="1.61" y="3.62" width="1.62" height="1.81"/><rect class="cls-4" x="1.61" y="1.81" width="1.62" height="1.81"/><rect class="cls-3" y="3.62" width="1.61" height="1.81"/><rect class="cls-4" y="1.81" width="1.61" height="1.81"/><rect class="cls-1" x="40.85" y="12.68" width="1.62" height="1.81"/><rect class="cls-1" x="37.62" y="12.68" width="1.62" height="1.81"/><rect class="cls-1" x="39.24" y="12.68" width="1.61" height="1.81"/><rect class="cls-1" x="32.77" y="12.68" width="1.62" height="1.81"/><rect class="cls-2" x="32.77" y="10.87" width="1.62" height="1.81"/><rect class="cls-2" x="31.15" y="10.87" width="1.62" height="1.81"/><rect class="cls-1" x="29.54" y="12.68" width="1.62" height="1.81"/><rect class="cls-1" x="31.15" y="12.68" width="1.62" height="1.81"/><rect class="cls-2" x="29.54" y="10.87" width="1.62" height="1.81"/><rect class="cls-2" x="37.62" y="10.87" width="1.62" height="1.81"/><rect class="cls-2" x="39.24" y="10.87" width="1.61" height="1.81"/><rect class="cls-2" x="40.85" y="10.87" width="1.62" height="1.81"/><rect class="cls-7" x="42.47" y="3.62" width="1.62" height="1.81"/><rect class="cls-8" x="42.47" y="1.81" width="1.62" height="1.81"/><rect class="cls-7" x="40.85" y="3.62" width="1.62" height="1.81"/><rect class="cls-8" x="40.85" y="1.81" width="1.62" height="1.81"/><rect class="cls-7" x="39.24" y="3.62" width="1.61" height="1.81"/><rect class="cls-8" x="39.24" y="1.81" width="1.61" height="1.81"/><rect class="cls-7" x="37.62" y="5.44" width="1.62" height="1.81"/><rect class="cls-8" x="37.62" y="3.62" width="1.62" height="1.81"/><rect class="cls-5" x="37.62" y="1.81" width="1.62" height="1.81"/><rect class="cls-5" x="37.62" width="1.62" height="1.81"/><rect class="cls-2" x="36" y="16.31" width="1.63" height="1.81"/><rect class="cls-2" x="36" y="14.5" width="1.63" height="1.81"/><rect class="cls-2" x="36" y="12.68" width="1.63" height="1.81"/><rect class="cls-2" x="36" y="10.87" width="1.63" height="1.81"/><rect class="cls-2" x="36" y="9.06" width="1.63" height="1.81"/><rect class="cls-2" x="36" y="7.25" width="1.63" height="1.81"/><rect class="cls-7" x="36" y="5.44" width="1.63" height="1.81"/><rect class="cls-8" x="36" y="3.62" width="1.63" height="1.81"/><rect class="cls-5" x="36" y="1.81" width="1.63" height="1.81"/><rect class="cls-5" x="36" width="1.63" height="1.81"/><rect class="cls-2" x="34.38" y="16.31" width="1.61" height="1.81"/><rect class="cls-2" x="34.38" y="14.5" width="1.61" height="1.81"/><rect class="cls-2" x="34.38" y="12.68" width="1.61" height="1.81"/><rect class="cls-2" x="34.38" y="10.87" width="1.61" height="1.81"/><rect class="cls-2" x="34.38" y="9.06" width="1.61" height="1.81"/><rect class="cls-2" x="34.38" y="7.25" width="1.61" height="1.81"/><rect class="cls-2" x="36" y="27.19" width="1.63" height="1.81"/><rect class="cls-2" x="36" y="25.37" width="1.63" height="1.81"/><rect class="cls-2" x="36" y="23.56" width="1.63" height="1.81"/><rect class="cls-2" x="36" y="21.75" width="1.63" height="1.81"/><rect class="cls-2" x="36" y="19.94" width="1.63" height="1.81"/><rect class="cls-2" x="36" y="18.12" width="1.63" height="1.81"/><rect class="cls-2" x="34.38" y="27.19" width="1.61" height="1.81"/><rect class="cls-2" x="34.38" y="25.37" width="1.61" height="1.81"/><rect class="cls-2" x="34.38" y="23.56" width="1.61" height="1.81"/><rect class="cls-2" x="34.38" y="21.75" width="1.61" height="1.81"/><rect class="cls-2" x="34.38" y="19.94" width="1.61" height="1.81"/><rect class="cls-2" x="34.38" y="18.12" width="1.61" height="1.81"/><rect class="cls-7" x="34.38" y="5.44" width="1.61" height="1.81"/><rect class="cls-8" x="34.38" y="3.62" width="1.61" height="1.81"/><rect class="cls-5" x="34.38" y="1.81" width="1.61" height="1.81"/><rect class="cls-6" x="34.38" width="1.61" height="1.81"/><rect class="cls-7" x="32.77" y="5.44" width="1.62" height="1.81"/><rect class="cls-8" x="32.77" y="3.62" width="1.62" height="1.81"/><rect class="cls-6" x="32.77" y="1.81" width="1.62" height="1.81"/><rect class="cls-6" x="32.77" width="1.62" height="1.81"/><rect class="cls-7" x="31.15" y="3.62" width="1.62" height="1.81"/><rect class="cls-8" x="31.15" y="1.81" width="1.62" height="1.81"/><rect class="cls-7" x="29.54" y="3.62" width="1.62" height="1.81"/><rect class="cls-8" x="29.54" y="1.81" width="1.62" height="1.81"/><rect class="cls-7" x="27.92" y="3.62" width="1.61" height="1.81"/><rect class="cls-8" x="27.92" y="1.81" width="1.61" height="1.81"/></svg>