<svg id="Layer_1" data-name="Layer 1" xmlns="http://www.w3.org/2000/svg" viewBox="0 0 161.95 113.09"><title>Girl</title><g id="Cape"><rect x="15.26" y="36.3" width="49.08" height="19.46" fill="#e5007e"/><rect x="34.34" y="39.03" width="49.08" height="27.24" fill="#e5007e"/><rect x="39.25" y="42.93" width="63.8" height="27.24" fill="#e5007e"/><rect x="58.88" y="46.82" width="68.71" height="19.46" fill="#e5007e"/><rect x="93.24" y="50.71" width="68.71" height="3.89" fill="#e5007e"/><rect x="137.41" y="54.6" width="14.72" height="3.89" fill="#e5007e"/><rect x="78.51" y="54.6" width="68.71" height="7.78" fill="#e5007e"/><rect x="44.16" y="54.6" width="63.8" height="15.57" fill="#e5007e"/><rect x="24.52" y="58.49" width="63.8" height="15.57" fill="#e5007e"/><rect x="19.62" y="62.39" width="49.08" height="15.57" fill="#e5007e"/></g><rect x="35.43" width="2.72" height="2.72" fill="#fbb03b"/><rect x="35.43" width="2.72" height="2.72" fill="#fbb03b"/><rect x="32.7" width="2.73" height="2.72" fill="#fbb03b"/><rect x="29.97" width="2.73" height="2.72" fill="#ffcc5a"/><rect x="27.25" width="2.72" height="2.72" fill="#f7931e"/><rect x="24.52" width="2.72" height="2.72" fill="#f7931e"/><rect x="19.07" width="2.72" height="2.72" fill="#f7931e"/><rect x="21.8" width="2.72" height="2.72" fill="#f7931e"/><rect x="38.15" y="2.72" width="2.72" height="2.72" fill="#fbb03b"/><rect x="35.43" y="2.72" width="2.72" height="2.72" fill="#fbb03b"/><rect x="35.43" y="2.72" width="2.72" height="2.72" fill="#fbb03b"/><rect x="32.7" y="2.72" width="2.73" height="2.72" fill="#ffcc5a"/><rect x="29.97" y="2.72" width="2.73" height="2.72" fill="#ffcc5a"/><rect x="27.25" y="2.72" width="2.72" height="2.72" fill="#ffcc5a"/><rect x="24.52" y="2.72" width="2.72" height="2.72" fill="#fbb03b"/><rect x="16.35" y="2.72" width="2.72" height="2.72" fill="#f7931e"/><rect x="19.07" y="2.72" width="2.72" height="2.72" fill="#f7931e"/><rect x="21.8" y="2.72" width="2.72" height="2.72" fill="#fbb03b"/><rect x="38.15" y="5.45" width="2.72" height="2.73" fill="#fbb03b"/><rect x="35.43" y="5.45" width="2.72" height="2.73" fill="#fbb03b"/><rect x="35.43" y="5.45" width="2.72" height="2.73" fill="#fbb03b"/><rect x="32.7" y="5.45" width="2.73" height="2.73" fill="#ffcc5a"/><rect x="29.97" y="5.45" width="2.73" height="2.73" fill="#ffcc5a"/><rect x="27.25" y="5.45" width="2.72" height="2.73" fill="#ffcc5a"/><rect x="24.52" y="5.45" width="2.72" height="2.73" fill="#ffcc5a"/><rect x="16.35" y="5.45" width="2.72" height="2.73" fill="#f7931e"/><rect x="19.07" y="5.45" width="2.72" height="2.73" fill="#fbb03b"/><rect x="21.8" y="5.45" width="2.72" height="2.73" fill="#fbb03b"/><rect x="38.15" y="8.18" width="2.72" height="2.72" fill="#fff"/><rect x="35.43" y="8.18" width="2.72" height="2.72" fill="#fbb03b"/><rect x="35.43" y="8.18" width="2.72" height="2.72" fill="#fbb03b"/><rect x="32.7" y="8.18" width="2.73" height="2.72" fill="#fbb03b"/><rect x="29.97" y="8.18" width="2.73" height="2.72" fill="#fbb03b"/><rect x="27.25" y="8.18" width="2.72" height="2.72" fill="#fbb03b"/><rect x="24.52" y="8.18" width="2.72" height="2.72" fill="#fbb03b"/><rect x="13.62" y="8.18" width="2.73" height="2.72" fill="#fbb03b"/><rect x="16.35" y="8.18" width="2.72" height="2.72" fill="#fbb03b"/><rect x="19.07" y="8.18" width="2.72" height="2.72" fill="#fbb03b"/><rect x="21.8" y="8.18" width="2.72" height="2.72" fill="#fbb03b"/><rect x="38.15" y="8.18" width="2.72" height="2.72" fill="#fbb03b"/><rect x="35.43" y="8.18" width="2.72" height="2.72" fill="#fbb03b"/><rect x="35.43" y="8.18" width="2.72" height="2.72" fill="#fbb03b"/><rect x="32.7" y="8.18" width="2.73" height="2.72" fill="#fbb03b"/><rect x="29.97" y="8.18" width="2.73" height="2.72" fill="#fbb03b"/><rect x="27.25" y="8.18" width="2.72" height="2.72" fill="#ffcc5a"/><rect x="24.52" y="8.18" width="2.72" height="2.72" fill="#ffcc5a"/><rect x="13.62" y="8.18" width="2.73" height="2.72" fill="#f7931e"/><rect x="16.35" y="8.18" width="2.72" height="2.72" fill="#f7931e"/><rect x="19.07" y="8.18" width="2.72" height="2.72" fill="#fbb03b"/><rect x="21.8" y="8.18" width="2.72" height="2.72" fill="#ffcc5a"/><rect x="40.88" y="43.6" width="2.72" height="2.72" fill="#f2f2f2"/><rect x="38.15" y="43.6" width="2.72" height="2.72" fill="#f2f2f2"/><rect x="35.43" y="43.6" width="2.72" height="2.72" fill="#e6e6e6"/><rect x="35.43" y="43.6" width="2.72" height="2.72" fill="#f2f2f2"/><rect x="32.7" y="43.6" width="2.73" height="2.72" fill="#f2f2f2"/><rect x="29.97" y="43.6" width="2.73" height="2.72" fill="#f4b89a"/><rect x="27.25" y="43.6" width="2.72" height="2.72" fill="#f4b89a"/><rect x="24.52" y="43.6" width="2.72" height="2.72" fill="#f4b89a"/><rect x="10.9" y="43.6" width="2.72" height="2.72" fill="#fff"/><rect x="10.9" y="43.6" width="2.72" height="2.72" fill="#f2f2f2"/><rect x="13.62" y="43.6" width="2.73" height="2.72" fill="#f2f2f2"/><rect x="16.35" y="43.6" width="2.72" height="2.72" fill="#f2f2f2"/><rect x="19.07" y="43.6" width="2.72" height="2.72" fill="#f2f2f2"/><rect x="21.8" y="43.6" width="2.72" height="2.72" fill="#f4b89a"/><rect x="38.15" y="40.88" width="2.72" height="2.72" fill="#f2f2f2"/><rect x="35.43" y="40.88" width="2.72" height="2.72" fill="#fff"/><rect x="35.43" y="40.88" width="2.72" height="2.72" fill="#f2f2f2"/><rect x="32.7" y="40.88" width="2.73" height="2.72" fill="#f2f2f2"/><rect x="29.97" y="40.88" width="2.73" height="2.72" fill="#f4b89a"/><rect x="27.25" y="40.88" width="2.72" height="2.72" fill="#f4b89a"/><rect x="24.52" y="40.88" width="2.72" height="2.72" fill="#f4b89a"/><rect x="13.62" y="40.88" width="2.73" height="2.72" fill="#f2f2f2"/><rect x="16.35" y="40.88" width="2.72" height="2.72" fill="#f2f2f2"/><rect x="19.07" y="40.88" width="2.72" height="2.72" fill="#f2f2f2"/><rect x="21.8" y="40.88" width="2.72" height="2.72" fill="#f4b89a"/><rect x="35.43" y="38.15" width="2.72" height="2.72" fill="#fff"/><rect x="35.43" y="38.15" width="2.72" height="2.72" fill="#e6e6e6"/><rect x="32.7" y="38.15" width="2.73" height="2.72" fill="#e6e6e6"/><rect x="29.97" y="38.15" width="2.73" height="2.72" fill="#f4b89a"/><rect x="27.25" y="38.15" width="2.72" height="2.72" fill="#f4b89a"/><rect x="24.52" y="38.15" width="2.72" height="2.72" fill="#f4b89a"/><rect x="16.35" y="38.15" width="2.72" height="2.72" fill="#e6e6e6"/><rect x="19.07" y="38.15" width="2.72" height="2.72" fill="#e6e6e6"/><rect x="21.8" y="38.15" width="2.72" height="2.72" fill="#f4b89a"/><rect x="38.15" y="35.42" width="2.72" height="2.73" fill="#fff"/><rect x="27.25" y="35.42" width="2.72" height="2.73" fill="#ffc8a9"/><rect x="24.52" y="35.42" width="2.72" height="2.73" fill="#ffc8a9"/><rect x="38.15" y="35.42" width="2.72" height="2.73" fill="#f7931e"/><rect x="27.25" y="35.42" width="2.72" height="2.73" fill="#f4b89a"/><rect x="24.52" y="35.42" width="2.72" height="2.73" fill="#f4b89a"/><rect x="38.15" y="21.8" width="2.72" height="2.72" fill="#f4b89a"/><rect x="35.43" y="21.8" width="2.72" height="2.72" fill="#ffc8a9"/><rect x="35.43" y="21.8" width="2.72" height="2.72" fill="#ffb7a4"/><rect x="32.7" y="21.8" width="2.73" height="2.72" fill="#ffb7a4"/><rect x="29.97" y="21.8" width="2.73" height="2.72" fill="#ffc8a9"/><rect x="27.25" y="21.8" width="2.72" height="2.72" fill="#ffc8a9"/><rect x="24.52" y="21.8" width="2.72" height="2.72" fill="#ffc8a9"/><rect x="13.62" y="21.8" width="2.73" height="2.72" fill="#f4b89a"/><rect x="16.35" y="21.8" width="2.72" height="2.72" fill="#ffb7a4"/><rect x="19.07" y="21.8" width="2.72" height="2.72" fill="#ffb7a4"/><rect x="21.8" y="21.8" width="2.72" height="2.72" fill="#ffc8a9"/><rect x="38.15" y="24.52" width="2.72" height="2.73" fill="#f4b89a"/><rect x="35.43" y="24.52" width="2.72" height="2.73" fill="#ffc8a9"/><rect x="35.43" y="24.52" width="2.72" height="2.73" fill="#ffb7a4"/><rect x="32.7" y="24.52" width="2.73" height="2.73" fill="#ffb7a4"/><rect x="29.97" y="24.52" width="2.73" height="2.73" fill="#fff"/><rect x="27.25" y="24.52" width="2.72" height="2.73" fill="#fff"/><rect x="24.52" y="24.52" width="2.72" height="2.73" fill="#fff"/><rect x="13.62" y="24.52" width="2.73" height="2.73" fill="#f4b89a"/><rect x="16.35" y="24.52" width="2.72" height="2.73" fill="#ffb7a4"/><rect x="19.07" y="24.52" width="2.72" height="2.73" fill="#ffb7a4"/><rect x="21.8" y="24.52" width="2.72" height="2.73" fill="#fff"/><rect x="38.15" y="27.25" width="2.72" height="2.72" fill="#f4b89a"/><rect x="35.43" y="27.25" width="2.72" height="2.72" fill="#ffc8a9"/><rect x="35.43" y="27.25" width="2.72" height="2.72" fill="#ffc8a9"/><rect x="32.7" y="27.25" width="2.73" height="2.72" fill="#ffc8a9"/><rect x="29.97" y="27.25" width="2.73" height="2.72" fill="#ffc8a9"/><rect x="27.25" y="27.25" width="2.72" height="2.72" fill="#fff"/><rect x="24.52" y="27.25" width="2.72" height="2.72" fill="#fff"/><rect x="13.62" y="27.25" width="2.73" height="2.72" fill="#f4b89a"/><rect x="16.35" y="27.25" width="2.72" height="2.72" fill="#ffc8a9"/><rect x="19.07" y="27.25" width="2.72" height="2.72" fill="#ffc8a9"/><rect x="21.8" y="27.25" width="2.72" height="2.72" fill="#ffc8a9"/><rect x="38.15" y="29.97" width="2.72" height="2.72" fill="#f7931e"/><rect x="35.43" y="29.97" width="2.72" height="2.72" fill="#ffc8a9"/><rect x="35.43" y="29.97" width="2.72" height="2.72" fill="#ffc8a9"/><rect x="32.7" y="29.97" width="2.73" height="2.72" fill="#ffc8a9"/><rect x="29.97" y="29.97" width="2.73" height="2.72" fill="#ffc8a9"/><rect x="27.25" y="29.97" width="2.72" height="2.72" fill="#ffc8a9"/><rect x="24.52" y="29.97" width="2.72" height="2.72" fill="#ffc8a9"/><rect x="16.35" y="29.97" width="2.72" height="2.72" fill="#ffc8a9"/><rect x="19.07" y="29.97" width="2.72" height="2.72" fill="#ffc8a9"/><rect x="21.8" y="29.97" width="2.72" height="2.72" fill="#ffc8a9"/><rect x="38.15" y="29.97" width="2.72" height="2.72" fill="#fbb03b"/><rect x="35.43" y="29.97" width="2.72" height="2.72" fill="#ffc8a9"/><rect x="35.43" y="29.97" width="2.72" height="2.72" fill="#f4b89a"/><rect x="32.7" y="29.97" width="2.73" height="2.72" fill="#ffc8a9"/><rect x="29.97" y="29.97" width="2.73" height="2.72" fill="#ffc8a9"/><rect x="27.25" y="29.97" width="2.72" height="2.72" fill="#ffc8a9"/><rect x="24.52" y="29.97" width="2.72" height="2.72" fill="#ffc8a9"/><rect x="16.35" y="29.97" width="2.72" height="2.72" fill="#f4b89a"/><rect x="19.07" y="29.97" width="2.72" height="2.72" fill="#ffc8a9"/><rect x="21.8" y="29.97" width="2.72" height="2.72" fill="#ffc8a9"/><rect x="38.15" y="19.07" width="2.72" height="2.72" fill="#f4b89a"/><rect x="35.43" y="19.07" width="2.72" height="2.72" fill="#ffc8a9"/><rect x="35.43" y="19.07" width="2.72" height="2.72" fill="#ffc8a9"/><rect x="32.7" y="19.07" width="2.73" height="2.72" fill="#1d70b7"/><rect x="29.97" y="19.07" width="2.73" height="2.72" fill="#ffc8a9"/><rect x="27.25" y="19.07" width="2.72" height="2.72" fill="#ffc8a9"/><rect x="24.52" y="19.07" width="2.72" height="2.72" fill="#ffc8a9"/><rect x="13.62" y="19.07" width="2.73" height="2.72" fill="#f4b89a"/><rect x="16.35" y="19.07" width="2.72" height="2.72" fill="#ffc8a9"/><rect x="19.07" y="19.07" width="2.72" height="2.72" fill="#1d70b7"/><rect x="21.8" y="19.07" width="2.72" height="2.72" fill="#ffc8a9"/><rect x="38.15" y="16.35" width="2.72" height="2.72" fill="#f4b89a"/><rect x="35.43" y="16.35" width="2.72" height="2.72" fill="#ffc8a9"/><rect x="35.43" y="16.35" width="2.72" height="2.72" fill="#ffc8a9"/><rect x="32.7" y="16.35" width="2.73" height="2.72" fill="#1d70b7"/><rect x="29.97" y="16.35" width="2.73" height="2.72" fill="#ffc8a9"/><rect x="27.25" y="16.35" width="2.72" height="2.72" fill="#ffc8a9"/><rect x="24.52" y="16.35" width="2.72" height="2.72" fill="#f4b89a"/><rect x="13.62" y="16.35" width="2.73" height="2.72" fill="#f4b89a"/><rect x="16.35" y="16.35" width="2.72" height="2.72" fill="#f4b89a"/><rect x="19.07" y="16.35" width="2.72" height="2.72" fill="#1d70b7"/><rect x="21.8" y="16.35" width="2.72" height="2.72" fill="#f4b89a"/><rect x="38.15" y="13.63" width="2.72" height="2.72" fill="#f4b89a"/><rect x="35.43" y="13.63" width="2.72" height="2.72" fill="#fff"/><rect x="35.43" y="13.63" width="2.72" height="2.72" fill="#ffc8a9"/><rect x="32.7" y="13.63" width="2.73" height="2.72" fill="#ffc8a9"/><rect x="29.97" y="13.63" width="2.73" height="2.72" fill="#ffc8a9"/><rect x="27.25" y="13.63" width="2.72" height="2.72" fill="#f4b89a"/><rect x="24.52" y="13.63" width="2.72" height="2.72" fill="#fbb03b"/><rect x="10.9" y="13.63" width="2.72" height="2.72" fill="#fff"/><rect x="10.9" y="13.63" width="2.72" height="2.72" fill="#f7931e"/><rect x="13.62" y="13.63" width="2.73" height="2.72" fill="#f7931e"/><rect x="16.35" y="13.63" width="2.72" height="2.72" fill="#ffcc5a"/><rect x="19.07" y="13.63" width="2.72" height="2.72" fill="#ffcc5a"/><rect x="21.8" y="13.63" width="2.72" height="2.72" fill="#fbb03b"/><rect x="38.15" y="10.9" width="2.72" height="2.72" fill="#fff"/><rect x="35.43" y="10.9" width="2.72" height="2.72" fill="#fff"/><rect x="35.43" y="10.9" width="2.72" height="2.72" fill="#fff"/><rect x="32.7" y="10.9" width="2.73" height="2.72" fill="#fff"/><rect x="29.97" y="10.9" width="2.73" height="2.72" fill="#fbb03b"/><rect x="27.25" y="10.9" width="2.72" height="2.72" fill="#fbb03b"/><rect x="24.52" y="10.9" width="2.72" height="2.72" fill="#fbb03b"/><rect x="13.62" y="10.9" width="2.73" height="2.72" fill="#fbb03b"/><rect x="16.35" y="10.9" width="2.72" height="2.72" fill="#fbb03b"/><rect x="19.07" y="10.9" width="2.72" height="2.72" fill="#fbb03b"/><rect x="21.8" y="10.9" width="2.72" height="2.72" fill="#fbb03b"/><rect x="38.15" y="10.9" width="2.72" height="2.72" fill="#f4b89a"/><rect x="40.88" y="8.18" width="2.72" height="2.72" fill="#fff"/><rect x="40.88" y="8.18" width="2.72" height="2.72" fill="#fbb03b"/><rect x="40.88" y="38.15" width="2.72" height="2.72" fill="#f7931e"/><rect x="40.88" y="35.42" width="2.72" height="2.73" fill="#fff"/><rect x="40.88" y="35.42" width="2.72" height="2.73" fill="#f7931e"/><rect x="40.88" y="21.8" width="2.72" height="2.72" fill="#ffcc5a"/><rect x="40.88" y="24.52" width="2.72" height="2.73" fill="#fbb03b"/><rect x="40.88" y="27.25" width="2.72" height="2.72" fill="#fbb03b"/><rect x="40.88" y="29.97" width="2.72" height="2.72" fill="#f7931e"/><rect x="40.88" y="29.97" width="2.72" height="2.72" fill="#fbb03b"/><rect x="40.88" y="19.07" width="2.72" height="2.72" fill="#fcee21"/><rect x="40.88" y="16.35" width="2.72" height="2.72" fill="#fbb03b"/><rect x="40.88" y="13.63" width="2.72" height="2.72" fill="#fbb03b"/><rect x="40.88" y="10.9" width="2.72" height="2.72" fill="#fff"/><rect x="40.88" y="10.9" width="2.72" height="2.72" fill="#fbb03b"/><rect x="43.6" y="38.15" width="2.72" height="2.72" fill="#f7931e"/><rect x="43.6" y="35.42" width="2.72" height="2.73" fill="#fff"/><rect x="43.6" y="35.42" width="2.72" height="2.73" fill="#fbb03b"/><rect x="43.6" y="21.8" width="2.72" height="2.72" fill="#ffcc5a"/><rect x="43.6" y="24.52" width="2.72" height="2.73" fill="#ffcc5a"/><rect x="43.6" y="27.25" width="2.72" height="2.72" fill="#fbb03b"/><rect x="43.6" y="29.97" width="2.72" height="2.72" fill="#f7931e"/><rect x="43.6" y="29.97" width="2.72" height="2.72" fill="#fbb03b"/><rect x="46.32" y="38.15" width="2.72" height="2.72" fill="#f7931e"/><rect x="46.32" y="35.43" width="2.72" height="2.72" fill="#fff"/><rect x="46.32" y="35.43" width="2.72" height="2.72" fill="#f7931e"/><rect x="46.32" y="24.53" width="2.72" height="2.72" fill="#ffcc5a"/><rect x="46.32" y="27.25" width="2.72" height="2.72" fill="#ffcc5a"/><rect x="46.32" y="29.97" width="2.72" height="2.72" fill="#f7931e"/><rect x="46.32" y="29.97" width="2.72" height="2.72" fill="#f7931e"/><rect x="35.43" y="10.9" width="2.72" height="2.72" fill="#fff"/><rect x="35.43" y="10.9" width="2.72" height="2.72" fill="#ffc8a9"/><rect x="32.7" y="10.9" width="2.73" height="2.72" fill="#ffc8a9"/><rect x="29.97" y="10.9" width="2.73" height="2.72" fill="#fbb03b"/><rect x="27.25" y="10.9" width="2.72" height="2.72" fill="#fbb03b"/><rect x="24.52" y="10.9" width="2.72" height="2.72" fill="#ffcc5a"/><rect x="13.62" y="10.9" width="2.73" height="2.72" fill="#f7931e"/><rect x="16.35" y="10.9" width="2.72" height="2.72" fill="#fbb03b"/><rect x="19.07" y="10.9" width="2.72" height="2.72" fill="#ffcc5a"/><rect x="21.8" y="10.9" width="2.72" height="2.72" fill="#ffcc5a"/><rect x="40.88" y="46.32" width="2.72" height="2.73" fill="#e6e6e6"/><rect x="38.15" y="46.32" width="2.72" height="2.73" fill="#f2f2f2"/><rect x="35.43" y="46.32" width="2.72" height="2.73" fill="#f2f2f2"/><rect x="35.43" y="46.32" width="2.72" height="2.73" fill="#fff"/><rect x="32.7" y="46.32" width="2.73" height="2.73" fill="#f2f2f2"/><rect x="29.97" y="46.32" width="2.73" height="2.73" fill="#e6e6e6"/><rect x="27.25" y="46.32" width="2.72" height="2.73" fill="#e6e6e6"/><rect x="24.52" y="46.32" width="2.72" height="2.73" fill="#e6e6e6"/><rect x="10.9" y="46.32" width="2.72" height="2.73" fill="#fff"/><rect x="10.9" y="46.32" width="2.72" height="2.73" fill="#e6e6e6"/><rect x="13.62" y="46.32" width="2.73" height="2.73" fill="#f2f2f2"/><rect x="16.35" y="46.32" width="2.72" height="2.73" fill="#fff"/><rect x="19.07" y="46.32" width="2.72" height="2.73" fill="#f2f2f2"/><rect x="21.8" y="46.32" width="2.72" height="2.73" fill="#e6e6e6"/><rect x="40.88" y="49.05" width="2.72" height="2.73" fill="#e6e6e6"/><rect x="38.15" y="49.05" width="2.72" height="2.73" fill="#f2f2f2"/><rect x="35.43" y="49.05" width="2.72" height="2.73" fill="#f2f2f2"/><rect x="35.43" y="49.05" width="2.72" height="2.73" fill="#ccc"/><rect x="32.7" y="49.05" width="2.73" height="2.73" fill="#fff"/><rect x="29.97" y="49.05" width="2.73" height="2.73" fill="#f2f2f2"/><rect x="27.25" y="49.05" width="2.72" height="2.73" fill="#f2f2f2"/><rect x="24.52" y="49.05" width="2.72" height="2.73" fill="#f2f2f2"/><rect x="10.9" y="49.05" width="2.72" height="2.73" fill="#fff"/><rect x="10.9" y="49.05" width="2.72" height="2.73" fill="#e6e6e6"/><rect x="13.62" y="49.05" width="2.73" height="2.73" fill="#f2f2f2"/><rect x="16.35" y="49.05" width="2.72" height="2.73" fill="#ccc"/><rect x="19.07" y="49.05" width="2.72" height="2.73" fill="#fff"/><rect x="21.8" y="49.05" width="2.72" height="2.73" fill="#f2f2f2"/><rect x="40.88" y="51.78" width="2.72" height="2.72" fill="#e6e6e6"/><rect x="38.15" y="51.78" width="2.72" height="2.72" fill="#e6e6e6"/><rect x="35.43" y="51.78" width="2.72" height="2.72" fill="#fff"/><rect x="35.43" y="51.78" width="2.72" height="2.72" fill="#ccc"/><rect x="32.7" y="51.78" width="2.73" height="2.72" fill="#fff"/><rect x="29.97" y="51.78" width="2.73" height="2.72" fill="#fff"/><rect x="27.25" y="51.78" width="2.72" height="2.72" fill="#fff"/><rect x="24.52" y="51.78" width="2.72" height="2.72" fill="#fff"/><rect x="10.9" y="51.78" width="2.72" height="2.72" fill="#fff"/><rect x="10.9" y="51.78" width="2.72" height="2.72" fill="#e6e6e6"/><rect x="13.62" y="51.78" width="2.73" height="2.72" fill="#e6e6e6"/><rect x="16.35" y="51.78" width="2.72" height="2.72" fill="#ccc"/><rect x="19.07" y="51.78" width="2.72" height="2.72" fill="#f2f2f2"/><rect x="21.8" y="51.78" width="2.72" height="2.72" fill="#fff"/><rect x="40.88" y="54.5" width="2.72" height="2.72" fill="#fff"/><rect x="38.15" y="54.5" width="2.72" height="2.72" fill="#fff"/><rect x="35.43" y="54.5" width="2.72" height="2.72" fill="#fff"/><rect x="35.43" y="54.5" width="2.72" height="2.72" fill="#fff"/><rect x="32.7" y="54.5" width="2.73" height="2.72" fill="#f2f2f2"/><rect x="29.97" y="54.5" width="2.73" height="2.72" fill="#f2f2f2"/><rect x="27.25" y="54.5" width="2.72" height="2.72" fill="#f2f2f2"/><rect x="24.52" y="54.5" width="2.72" height="2.72" fill="#f2f2f2"/><rect x="8.17" y="54.5" width="2.72" height="2.72" fill="#fff"/><rect x="10.9" y="54.5" width="2.72" height="2.72" fill="#fff"/><rect x="10.9" y="54.5" width="2.72" height="2.72" fill="#fff"/><rect x="13.62" y="54.5" width="2.73" height="2.72" fill="#fff"/><rect x="16.35" y="54.5" width="2.72" height="2.72" fill="#fff"/><rect x="19.07" y="54.5" width="2.72" height="2.72" fill="#e6e6e6"/><rect x="21.8" y="54.5" width="2.72" height="2.72" fill="#f2f2f2"/><rect x="40.88" y="54.5" width="2.72" height="2.72" fill="#e6e6e6"/><rect x="38.15" y="54.5" width="2.72" height="2.72" fill="#e6e6e6"/><rect x="35.43" y="54.5" width="2.72" height="2.72" fill="#fff"/><rect x="35.43" y="54.5" width="2.72" height="2.72" fill="#ccc"/><rect x="32.7" y="54.5" width="2.73" height="2.72" fill="#f2f2f2"/><rect x="29.97" y="54.5" width="2.73" height="2.72" fill="#fff"/><rect x="27.25" y="54.5" width="2.72" height="2.72" fill="#fff"/><rect x="24.52" y="54.5" width="2.72" height="2.72" fill="#f2f2f2"/><rect x="10.9" y="54.5" width="2.72" height="2.72" fill="#fff"/><rect x="10.9" y="54.5" width="2.72" height="2.72" fill="#e6e6e6"/><rect x="13.62" y="54.5" width="2.73" height="2.72" fill="#e6e6e6"/><rect x="16.35" y="54.5" width="2.72" height="2.72" fill="#ccc"/><rect x="19.07" y="54.5" width="2.72" height="2.72" fill="#f2f2f2"/><rect x="21.8" y="54.5" width="2.72" height="2.72" fill="#f2f2f2"/><rect x="38.15" y="65.4" width="2.72" height="2.73" fill="#00537c"/><rect x="35.43" y="65.4" width="2.72" height="2.73" fill="#00537c"/><rect x="35.43" y="65.4" width="2.72" height="2.73" fill="#005d82"/><rect x="32.7" y="65.4" width="2.73" height="2.73" fill="#00648c"/><rect x="29.97" y="65.4" width="2.73" height="2.73" fill="#00537c"/><rect x="27.25" y="65.4" width="2.72" height="2.73" fill="#00537c"/><rect x="24.52" y="65.4" width="2.72" height="2.73" fill="#00537c"/><rect x="16.35" y="65.4" width="2.72" height="2.73" fill="#005d82"/><rect x="19.07" y="65.4" width="2.72" height="2.73" fill="#005d82"/><rect x="21.8" y="65.4" width="2.72" height="2.73" fill="#00648c"/><rect x="38.15" y="62.68" width="2.72" height="2.72" fill="#00537c"/><rect x="35.43" y="62.68" width="2.72" height="2.72" fill="#00537c"/><rect x="35.43" y="62.68" width="2.72" height="2.72" fill="#005d82"/><rect x="32.7" y="62.68" width="2.73" height="2.72" fill="#005d82"/><rect x="29.97" y="62.68" width="2.73" height="2.72" fill="#005d82"/><rect x="27.25" y="62.68" width="2.72" height="2.72" fill="#005d82"/><rect x="24.52" y="62.68" width="2.72" height="2.72" fill="#005d82"/><rect x="19.07" y="62.68" width="2.72" height="2.72" fill="#005d82"/><rect x="21.8" y="62.68" width="2.72" height="2.72" fill="#005d82"/><rect x="40.88" y="59.95" width="2.72" height="2.73" fill="#ffc8a9"/><rect x="38.15" y="59.95" width="2.72" height="2.73" fill="#7b7b7b"/><rect x="32.7" y="59.95" width="2.73" height="2.73" fill="#ccc"/><rect x="29.97" y="59.95" width="2.73" height="2.73" fill="#ccc"/><rect x="27.25" y="59.95" width="2.72" height="2.73" fill="#ccc"/><rect x="24.52" y="59.95" width="2.72" height="2.73" fill="#fff"/><rect x="10.9" y="59.95" width="2.72" height="2.73" fill="#fff"/><rect x="19.07" y="59.95" width="2.72" height="2.73" fill="#ccc"/><rect x="21.8" y="59.95" width="2.72" height="2.73" fill="#ccc"/><rect x="40.88" y="57.22" width="2.72" height="2.72" fill="#fff"/><rect x="38.15" y="57.22" width="2.72" height="2.72" fill="#fff"/><rect x="32.7" y="57.22" width="2.73" height="2.72" fill="#f2f2f2"/><rect x="29.97" y="57.22" width="2.73" height="2.72" fill="#f2f2f2"/><rect x="27.25" y="57.22" width="2.72" height="2.72" fill="#f2f2f2"/><rect x="24.52" y="57.22" width="2.72" height="2.72" fill="#f2f2f2"/><rect x="8.17" y="57.22" width="2.72" height="2.72" fill="#fff"/><rect x="10.9" y="57.22" width="2.72" height="2.72" fill="#fff"/><rect x="10.9" y="57.22" width="2.72" height="2.72" fill="#fff"/><rect x="13.62" y="57.22" width="2.73" height="2.72" fill="#fff"/><rect x="19.07" y="57.22" width="2.72" height="2.72" fill="#fff"/><rect x="21.8" y="57.22" width="2.72" height="2.72" fill="#f2f2f2"/><rect x="40.88" y="57.22" width="2.72" height="2.72" fill="#ffc8a9"/><rect x="38.15" y="57.22" width="2.72" height="2.72" fill="#7b7b7b"/><rect x="32.7" y="57.22" width="2.73" height="2.72" fill="#ccc"/><rect x="29.97" y="57.22" width="2.73" height="2.72" fill="#f2f2f2"/><rect x="27.25" y="57.22" width="2.72" height="2.72" fill="#fff"/><rect x="24.52" y="57.22" width="2.72" height="2.72" fill="#f2f2f2"/><rect x="5.45" y="54.5" width="2.72" height="2.72" fill="#fff"/><rect x="38.15" y="32.7" width="2.72" height="2.72" fill="#fff"/><rect x="32.7" y="32.7" width="2.73" height="2.72" fill="#fff"/><rect x="29.97" y="32.7" width="2.73" height="2.72" fill="#fff"/><rect x="27.25" y="32.7" width="2.72" height="2.72" fill="#ffc8a9"/><rect x="24.52" y="32.7" width="2.72" height="2.72" fill="#ffc8a9"/><rect x="19.07" y="32.7" width="2.72" height="2.72" fill="#fff"/><rect x="21.8" y="32.7" width="2.72" height="2.72" fill="#fff"/><rect x="38.15" y="32.7" width="2.72" height="2.72" fill="#f7931e"/><rect x="32.7" y="32.7" width="2.73" height="2.72" fill="#f4b89a"/><rect x="29.97" y="32.7" width="2.73" height="2.72" fill="#f4b89a"/><rect x="27.25" y="32.7" width="2.72" height="2.72" fill="#f4b89a"/><rect x="24.52" y="32.7" width="2.72" height="2.72" fill="#f4b89a"/><rect x="19.07" y="32.7" width="2.72" height="2.72" fill="#f4b89a"/><rect x="21.8" y="32.7" width="2.72" height="2.72" fill="#f4b89a"/><rect x="40.88" y="32.7" width="2.72" height="2.72" fill="#fff"/><rect x="40.88" y="32.7" width="2.72" height="2.72" fill="#f7931e"/><rect x="43.6" y="32.7" width="2.72" height="2.72" fill="#fff"/><rect x="43.6" y="32.7" width="2.72" height="2.72" fill="#fbb03b"/><rect x="46.32" y="32.7" width="2.72" height="2.72" fill="#fff"/><rect x="46.32" y="32.7" width="2.72" height="2.72" fill="#f7931e"/><rect x="10.9" y="57.22" width="2.72" height="2.72" fill="#fff"/><g id="hand"><rect x="8.17" y="54.5" width="2.72" height="2.72" fill="#ffc8a9"/><rect x="10.9" y="59.95" width="2.72" height="2.73" fill="#f4b89a"/><rect x="13.62" y="59.95" width="2.73" height="2.73" fill="#f4b89a"/><rect x="8.17" y="57.22" width="2.72" height="2.72" fill="#f4b89a"/><rect x="5.45" y="46.32" width="2.72" height="2.73" fill="#ffc8a9"/><rect x="5.45" y="49.05" width="2.72" height="2.73" fill="#ffc8a9"/><rect x="5.45" y="51.78" width="2.72" height="2.72" fill="#ffc8a9"/><rect x="5.45" y="54.5" width="2.72" height="2.72" fill="#f4b89a"/><rect x="2.72" y="49.05" width="2.72" height="2.73" fill="#ffc8a9"/><rect x="2.72" y="51.78" width="2.72" height="2.72" fill="#f4b89a"/><rect y="49.05" width="2.72" height="2.72" fill="#f4b89a"/><rect y="51.78" width="2.72" height="2.72" fill="#f4b89a"/><rect x="10.9" y="57.22" width="2.72" height="2.72" fill="#ffc8a9"/><rect x="13.62" y="57.22" width="2.73" height="2.72" fill="#ffc8a9"/></g><rect x="19.07" y="57.22" width="2.72" height="2.72" fill="#ccc"/><rect x="21.8" y="57.22" width="2.72" height="2.72" fill="#f2f2f2"/><rect x="38.15" y="68.13" width="2.72" height="2.72" fill="#00537c"/><rect x="35.43" y="68.13" width="2.72" height="2.72" fill="#fff"/><rect x="35.43" y="68.13" width="2.72" height="2.72" fill="#00537c"/><rect x="32.7" y="68.13" width="2.73" height="2.72" fill="#00648c"/><rect x="29.97" y="68.13" width="2.73" height="2.72" fill="#00537c"/><rect x="27.25" y="68.13" width="2.72" height="2.72" fill="#00537c"/><rect x="24.52" y="68.13" width="2.72" height="2.72" fill="#00537c"/><rect x="16.35" y="68.13" width="2.72" height="2.72" fill="#00648c"/><rect x="19.07" y="68.13" width="2.72" height="2.72" fill="#00648c"/><rect x="21.8" y="68.13" width="2.72" height="2.72" fill="#00648c"/><rect x="38.15" y="70.85" width="2.72" height="2.73" fill="#00537c"/><rect x="35.43" y="70.85" width="2.72" height="2.73" fill="#00537c"/><rect x="35.43" y="70.85" width="2.72" height="2.73" fill="#00537c"/><rect x="32.7" y="70.85" width="2.73" height="2.73" fill="#00537c"/><rect x="29.97" y="70.85" width="2.73" height="2.73" fill="#00537c"/><rect x="27.25" y="70.85" width="2.72" height="2.73" fill="#00537c"/><rect x="24.52" y="70.85" width="2.72" height="2.73" fill="#00537c"/><rect x="16.35" y="70.85" width="2.72" height="2.73" fill="#00537c"/><rect x="19.07" y="70.85" width="2.72" height="2.73" fill="#00537c"/><rect x="21.8" y="70.85" width="2.72" height="2.73" fill="#00537c"/><rect x="38.15" y="73.58" width="2.72" height="2.72" fill="#00537c"/><rect x="35.43" y="73.58" width="2.72" height="2.72" fill="#00537c"/><rect x="35.43" y="73.58" width="2.72" height="2.72" fill="#00537c"/><rect x="32.7" y="73.58" width="2.73" height="2.72" fill="#00537c"/><rect x="29.97" y="73.58" width="2.73" height="2.72" fill="#00537c"/><rect x="27.25" y="73.58" width="2.72" height="2.72" fill="#00537c"/><rect x="24.52" y="73.58" width="2.72" height="2.72" fill="#00537c"/><rect x="16.35" y="73.58" width="2.72" height="2.72" fill="#005d82"/><rect x="19.07" y="73.58" width="2.72" height="2.72" fill="#00537c"/><rect x="21.8" y="73.58" width="2.72" height="2.72" fill="#00537c"/><rect x="38.15" y="76.3" width="2.72" height="2.73" fill="#fff"/><rect x="35.43" y="76.3" width="2.72" height="2.73" fill="#00537c"/><rect x="35.43" y="76.3" width="2.72" height="2.73" fill="#00537c"/><rect x="32.7" y="76.3" width="2.73" height="2.73" fill="#00537c"/><rect x="29.97" y="76.3" width="2.73" height="2.73" fill="#fff"/><rect x="24.52" y="76.3" width="2.72" height="2.73" fill="#00537c"/><rect x="16.35" y="76.3" width="2.72" height="2.73" fill="#fff"/><rect x="19.07" y="76.3" width="2.72" height="2.73" fill="#00537c"/><rect x="21.8" y="76.3" width="2.72" height="2.73" fill="#00537c"/><rect x="38.15" y="76.3" width="2.72" height="2.73" fill="#00537c"/><rect x="35.43" y="76.3" width="2.72" height="2.73" fill="#00537c"/><rect x="35.43" y="76.3" width="2.72" height="2.73" fill="#00537c"/><rect x="32.7" y="76.3" width="2.73" height="2.73" fill="#00537c"/><rect x="29.97" y="76.3" width="2.73" height="2.73" fill="#00537c"/><rect x="24.52" y="76.3" width="2.72" height="2.73" fill="#00537c"/><rect x="16.35" y="76.3" width="2.72" height="2.73" fill="#005d82"/><rect x="19.07" y="76.3" width="2.72" height="2.73" fill="#00537c"/><rect x="21.8" y="76.3" width="2.72" height="2.73" fill="#00537c"/><rect x="38.15" y="107.65" width="2.72" height="2.72" fill="#333"/><rect x="35.43" y="107.65" width="2.72" height="2.72" fill="#fff"/><rect x="35.43" y="107.65" width="2.72" height="2.72" fill="#333"/><rect x="32.7" y="107.65" width="2.73" height="2.72" fill="#333"/><rect x="16.35" y="107.65" width="2.72" height="2.72" fill="#333"/><rect x="19.07" y="107.65" width="2.72" height="2.72" fill="#333"/><rect x="21.8" y="107.65" width="2.72" height="2.72" fill="#333"/><rect x="38.15" y="110.37" width="2.72" height="2.72" fill="#b3b3b3"/><rect x="35.43" y="110.37" width="2.72" height="2.72" fill="#fff"/><rect x="35.43" y="110.37" width="2.72" height="2.72" fill="#b3b3b3"/><rect x="32.7" y="110.37" width="2.73" height="2.72" fill="#b3b3b3"/><rect x="16.35" y="110.37" width="2.72" height="2.72" fill="#b3b3b3"/><rect x="19.07" y="110.37" width="2.72" height="2.72" fill="#b3b3b3"/><rect x="21.8" y="110.37" width="2.72" height="2.72" fill="#b3b3b3"/><rect x="35.43" y="104.92" width="2.72" height="2.72" fill="#fff"/><rect x="35.43" y="104.92" width="2.72" height="2.72" fill="#f4b89a"/><rect x="32.7" y="104.92" width="2.73" height="2.72" fill="#f4b89a"/><rect x="19.07" y="104.92" width="2.72" height="2.72" fill="#f4b89a"/><rect x="21.8" y="104.92" width="2.72" height="2.72" fill="#f4b89a"/><rect x="35.43" y="102.2" width="2.72" height="2.73" fill="#fff"/><rect x="35.43" y="102.2" width="2.72" height="2.73" fill="#005d82"/><rect x="32.7" y="102.2" width="2.73" height="2.73" fill="#00537c"/><rect x="29.97" y="102.2" width="2.73" height="2.73" fill="#00537c"/><rect x="24.52" y="102.2" width="2.72" height="2.73" fill="#00537c"/><rect x="19.07" y="102.2" width="2.72" height="2.73" fill="#005d82"/><rect x="21.8" y="102.2" width="2.72" height="2.73" fill="#00537c"/><rect x="35.43" y="99.47" width="2.72" height="2.72" fill="#fff"/><rect x="35.43" y="99.47" width="2.72" height="2.72" fill="#005d82"/><rect x="32.7" y="99.47" width="2.73" height="2.72" fill="#00537c"/><rect x="29.97" y="99.47" width="2.73" height="2.72" fill="#00537c"/><rect x="24.52" y="99.47" width="2.72" height="2.72" fill="#00537c"/><rect x="19.07" y="99.47" width="2.72" height="2.72" fill="#005d82"/><rect x="21.8" y="99.47" width="2.72" height="2.72" fill="#00537c"/><rect x="35.43" y="96.74" width="2.72" height="2.72" fill="#fff"/><rect x="35.43" y="96.74" width="2.72" height="2.72" fill="#fff"/><rect x="32.7" y="96.74" width="2.73" height="2.72" fill="#00537c"/><rect x="29.97" y="96.74" width="2.73" height="2.72" fill="#00537c"/><rect x="24.52" y="96.74" width="2.72" height="2.72" fill="#fff"/><rect x="19.07" y="96.74" width="2.72" height="2.72" fill="#00537c"/><rect x="21.8" y="96.74" width="2.72" height="2.72" fill="#00537c"/><rect x="35.43" y="96.74" width="2.72" height="2.72" fill="#fff"/><rect x="35.43" y="96.74" width="2.72" height="2.72" fill="#005d82"/><rect x="32.7" y="96.74" width="2.73" height="2.72" fill="#00537c"/><rect x="29.97" y="96.74" width="2.73" height="2.72" fill="#00537c"/><rect x="24.52" y="96.74" width="2.72" height="2.72" fill="#00537c"/><rect x="19.07" y="96.74" width="2.72" height="2.72" fill="#005d82"/><rect x="21.8" y="96.74" width="2.72" height="2.72" fill="#00537c"/><rect x="35.43" y="89.93" width="2.72" height="2.73" fill="#fff"/><rect x="35.43" y="89.93" width="2.72" height="2.73" fill="#005d82"/><rect x="32.7" y="89.93" width="2.73" height="2.73" fill="#00537c"/><rect x="29.97" y="89.93" width="2.73" height="2.73" fill="#00537c"/><rect x="24.52" y="89.93" width="2.72" height="2.73" fill="#00537c"/><rect x="19.07" y="89.93" width="2.72" height="2.73" fill="#005d82"/><rect x="21.8" y="89.93" width="2.72" height="2.73" fill="#00537c"/><rect x="35.43" y="92.65" width="2.72" height="2.72" fill="#fff"/><rect x="35.43" y="92.65" width="2.72" height="2.72" fill="#005d82"/><rect x="32.7" y="92.65" width="2.73" height="2.72" fill="#00537c"/><rect x="29.97" y="92.65" width="2.73" height="2.72" fill="#00537c"/><rect x="24.52" y="92.65" width="2.72" height="2.72" fill="#00537c"/><rect x="19.07" y="92.65" width="2.72" height="2.72" fill="#005d82"/><rect x="21.8" y="92.65" width="2.72" height="2.72" fill="#00537c"/><rect x="35.43" y="95.38" width="2.72" height="2.73" fill="#fff"/><rect x="35.43" y="95.38" width="2.72" height="2.73" fill="#005d82"/><rect x="32.7" y="95.38" width="2.73" height="2.73" fill="#00537c"/><rect x="29.97" y="95.38" width="2.73" height="2.73" fill="#00537c"/><rect x="24.52" y="95.38" width="2.72" height="2.73" fill="#00537c"/><rect x="19.07" y="95.38" width="2.72" height="2.73" fill="#005d82"/><rect x="21.8" y="95.38" width="2.72" height="2.73" fill="#00537c"/><rect x="38.15" y="87.2" width="2.72" height="2.72" fill="#005d82"/><rect x="35.43" y="87.2" width="2.72" height="2.72" fill="#00537c"/><rect x="35.43" y="87.2" width="2.72" height="2.72" fill="#005d82"/><rect x="32.7" y="87.2" width="2.73" height="2.72" fill="#00537c"/><rect x="29.97" y="87.2" width="2.73" height="2.72" fill="#00537c"/><rect x="24.52" y="87.2" width="2.72" height="2.72" fill="#00537c"/><rect x="16.35" y="87.2" width="2.72" height="2.72" fill="#005d82"/><rect x="19.07" y="87.2" width="2.72" height="2.72" fill="#00537c"/><rect x="21.8" y="87.2" width="2.72" height="2.72" fill="#00537c"/><rect x="38.15" y="84.48" width="2.72" height="2.72" fill="#005d82"/><rect x="35.43" y="84.48" width="2.72" height="2.72" fill="#00537c"/><rect x="35.43" y="84.48" width="2.72" height="2.72" fill="#00537c"/><rect x="32.7" y="84.48" width="2.73" height="2.72" fill="#00537c"/><rect x="29.97" y="84.48" width="2.73" height="2.72" fill="#00537c"/><rect x="24.52" y="84.48" width="2.72" height="2.72" fill="#00537c"/><rect x="16.35" y="84.48" width="2.72" height="2.72" fill="#005d82"/><rect x="19.07" y="84.48" width="2.72" height="2.72" fill="#00537c"/><rect x="21.8" y="84.48" width="2.72" height="2.72" fill="#00537c"/><rect x="38.15" y="81.75" width="2.72" height="2.72" fill="#005d82"/><rect x="35.43" y="81.75" width="2.72" height="2.72" fill="#00537c"/><rect x="35.43" y="81.75" width="2.72" height="2.72" fill="#00537c"/><rect x="32.7" y="81.75" width="2.73" height="2.72" fill="#00537c"/><rect x="29.97" y="81.75" width="2.73" height="2.72" fill="#00537c"/><rect x="24.52" y="81.75" width="2.72" height="2.72" fill="#00537c"/><rect x="16.35" y="81.75" width="2.72" height="2.72" fill="#005d82"/><rect x="19.07" y="81.75" width="2.72" height="2.72" fill="#00537c"/><rect x="21.8" y="81.75" width="2.72" height="2.72" fill="#00537c"/><rect x="38.15" y="79.03" width="2.72" height="2.73" fill="#fff"/><rect x="35.43" y="79.03" width="2.72" height="2.73" fill="#00537c"/><rect x="35.43" y="79.03" width="2.72" height="2.73" fill="#00537c"/><rect x="32.7" y="79.03" width="2.73" height="2.73" fill="#00537c"/><rect x="29.97" y="79.03" width="2.73" height="2.73" fill="#fff"/><rect x="24.52" y="79.03" width="2.72" height="2.73" fill="#00537c"/><rect x="16.35" y="79.03" width="2.72" height="2.73" fill="#fff"/><rect x="19.07" y="79.03" width="2.72" height="2.73" fill="#fff"/><rect x="21.8" y="79.03" width="2.72" height="2.73" fill="#00537c"/><rect x="38.15" y="79.03" width="2.72" height="2.73" fill="#005d82"/><rect x="35.43" y="79.03" width="2.72" height="2.73" fill="#00537c"/><rect x="35.43" y="79.03" width="2.72" height="2.73" fill="#00537c"/><rect x="32.7" y="79.03" width="2.73" height="2.73" fill="#00537c"/><rect x="29.97" y="79.03" width="2.73" height="2.73" fill="#00537c"/><rect x="24.52" y="79.03" width="2.72" height="2.73" fill="#00537c"/><rect x="16.35" y="79.03" width="2.72" height="2.73" fill="#005d82"/><rect x="19.07" y="79.03" width="2.72" height="2.73" fill="#00537c"/><rect x="21.8" y="79.03" width="2.72" height="2.73" fill="#00537c"/><rect x="40.9" y="62.62" width="2.7" height="2.69" fill="#f4b89a"/><rect x="38.21" y="62.62" width="2.7" height="2.69" fill="#ffc8a9"/><rect x="24.72" y="62.62" width="2.7" height="2.69" fill="#12a5a8"/><rect x="27.42" y="62.62" width="2.7" height="2.69" fill="#ffc8a9"/><rect x="30.11" y="62.62" width="2.69" height="2.69" fill="#12a5a8"/><rect x="32.81" y="62.62" width="2.7" height="2.69" fill="#12a5a8"/><rect x="35.51" y="62.62" width="2.7" height="2.69" fill="#12a5a8"/><rect x="22.02" y="62.62" width="2.7" height="2.69" fill="#12a5a8"/><rect x="40.9" y="65.32" width="2.7" height="2.7" fill="#f4b89a"/><rect x="38.21" y="65.32" width="2.7" height="2.7" fill="#f4b89a"/><rect x="24.72" y="65.32" width="2.7" height="2.7" fill="#ffc8a9"/><rect x="27.42" y="65.32" width="2.7" height="2.7" fill="#ffc8a9"/><rect x="30.11" y="65.32" width="2.69" height="2.7" fill="#f4b89a"/><rect x="32.81" y="65.32" width="2.7" height="2.7" fill="#f4b89a"/><rect x="35.51" y="65.32" width="2.7" height="2.7" fill="#f4b89a"/><rect x="22.02" y="65.32" width="2.7" height="2.7" fill="#ffc8a9"/><rect x="38.21" y="68.02" width="2.7" height="2.7" fill="#f4b89a"/><rect x="24.72" y="68.02" width="2.7" height="2.7" fill="#ffc8a9"/><rect x="27.42" y="68.02" width="2.7" height="2.7" fill="#ffc8a9"/><rect x="30.11" y="68.02" width="2.69" height="2.7" fill="#f4b89a"/><rect x="32.81" y="68.02" width="2.7" height="2.7" fill="#f4b89a"/><rect x="35.51" y="68.02" width="2.7" height="2.7" fill="#f4b89a"/><rect x="22.02" y="68.02" width="2.7" height="2.7" fill="#ffc8a9"/><rect x="24.72" y="73.41" width="2.7" height="2.7" fill="#12a5a8"/><rect x="27.42" y="73.41" width="2.7" height="2.7" fill="#12a5a8"/><rect x="30.11" y="73.41" width="2.69" height="2.7" fill="#12a5a8"/><rect x="32.81" y="73.41" width="2.7" height="2.7" fill="#12a5a8"/><rect x="35.51" y="73.41" width="2.7" height="2.7" fill="#12a5a8"/><rect x="22.02" y="73.41" width="2.7" height="2.7" fill="#12a5a8"/><rect x="24.72" y="70.71" width="2.7" height="2.7" fill="#12a5a8"/><rect x="27.42" y="70.71" width="2.7" height="2.7" fill="#12a5a8"/><rect x="30.11" y="70.71" width="2.69" height="2.7" fill="#12a5a8"/><rect x="32.81" y="70.71" width="2.7" height="2.7" fill="#12a5a8"/><rect x="35.51" y="70.71" width="2.7" height="2.7" fill="#12a5a8"/><rect x="22.02" y="70.71" width="2.7" height="2.7" fill="#12a5a8"/><rect x="40.9" y="59.92" width="2.7" height="2.7" fill="#f4b89a"/><rect x="38.21" y="59.92" width="2.7" height="2.7" fill="#ffc8a9"/><rect x="24.72" y="59.92" width="2.7" height="2.7" fill="#12a5a8"/><rect x="27.42" y="59.92" width="2.7" height="2.7" fill="#12a5a8"/><rect x="30.11" y="59.92" width="2.69" height="2.7" fill="#12a5a8"/><rect x="32.81" y="59.92" width="2.7" height="2.7" fill="#12a5a8"/><rect x="35.51" y="59.92" width="2.7" height="2.7" fill="#12a5a8"/><rect x="22.02" y="59.92" width="2.7" height="2.7" fill="#12a5a8"/><rect x="40.9" y="57.22" width="2.7" height="2.7" fill="#f2f2f2"/><rect x="38.21" y="57.22" width="2.7" height="2.7" fill="#fff"/><rect x="24.72" y="57.22" width="2.7" height="2.7" fill="#12a5a8"/><rect x="27.42" y="57.22" width="2.7" height="2.7" fill="#12a5a8"/><rect x="30.11" y="57.22" width="2.69" height="2.7" fill="#12a5a8"/><rect x="32.81" y="57.22" width="2.7" height="2.7" fill="#12a5a8"/><rect x="35.51" y="57.22" width="2.7" height="2.7" fill="#12a5a8"/><rect x="22.02" y="57.22" width="2.7" height="2.7" fill="#12a5a8"/></svg>