<svg id="Mushroom" class="decorator" data-name="Layer 1" xmlns="http://www.w3.org/2000/svg" viewBox="0 0 32.93 31.89"><title>mushroom</title><rect x="14.96" y="30.22" width="1.5" height="1.68" fill="#ebc05b"/><rect x="14.96" y="28.54" width="1.5" height="1.68" fill="#ebc05b"/><rect x="14.96" y="26.86" width="1.5" height="1.68" fill="#f5db98"/><rect x="14.96" y="25.18" width="1.5" height="1.68" fill="#f5db98"/><rect x="14.96" y="23.5" width="1.5" height="1.68" fill="#f5db98"/><rect x="14.96" y="21.82" width="1.5" height="1.68" fill="#a5151c"/><rect x="14.96" y="20.15" width="1.5" height="1.68" fill="#a5151c"/><rect x="14.96" y="18.47" width="1.5" height="1.68" fill="#fff"/><rect x="14.96" y="16.78" width="1.5" height="1.69" fill="#fff"/><rect x="14.96" y="15.1" width="1.5" height="1.68" fill="#e20613"/><rect x="14.96" y="13.43" width="1.5" height="1.68" fill="#e20613"/><rect x="14.96" y="11.75" width="1.5" height="1.68" fill="#e20613"/><rect x="14.96" y="10.07" width="1.5" height="1.68" fill="#e20613"/><rect x="14.96" y="8.39" width="1.5" height="1.68" fill="#fff"/><rect x="14.96" y="6.71" width="1.5" height="1.68" fill="#fff"/><rect x="14.96" y="5.03" width="1.5" height="1.68" fill="#fff"/><rect x="14.96" y="3.36" width="1.5" height="1.68" fill="#e20613"/><rect x="14.96" y="1.68" width="1.5" height="1.68" fill="#e20613"/><rect x="14.96" width="1.5" height="1.68" fill="#e84e1b"/><rect x="13.46" y="30.22" width="1.5" height="1.68" fill="#ebc05b"/><rect x="13.46" y="28.54" width="1.5" height="1.68" fill="#f5db98"/><rect x="13.46" y="26.86" width="1.5" height="1.68" fill="#f5db98"/><rect x="13.46" y="25.18" width="1.5" height="1.68" fill="#f5db98"/><rect x="13.46" y="23.5" width="1.5" height="1.68" fill="#f5db98"/><rect x="13.46" y="21.82" width="1.5" height="1.68" fill="#a5151c"/><rect x="13.46" y="20.15" width="1.5" height="1.68" fill="#a5151c"/><rect x="13.46" y="18.47" width="1.5" height="1.68" fill="#e20613"/><rect x="13.46" y="16.78" width="1.5" height="1.69" fill="#e20613"/><rect x="13.46" y="15.1" width="1.5" height="1.68" fill="#e20613"/><rect x="13.46" y="13.43" width="1.5" height="1.68" fill="#e20613"/><rect x="13.46" y="11.75" width="1.5" height="1.68" fill="#e20613"/><rect x="13.46" y="10.07" width="1.5" height="1.68" fill="#e20613"/><rect x="13.46" y="8.39" width="1.5" height="1.68" fill="#fff"/><rect x="13.46" y="6.71" width="1.5" height="1.68" fill="#fff"/><rect x="13.46" y="5.03" width="1.5" height="1.68" fill="#fff"/><rect x="13.46" y="3.36" width="1.5" height="1.68" fill="#e20613"/><rect x="13.46" y="1.68" width="1.5" height="1.68" fill="#e84e1b"/><rect x="13.46" width="1.5" height="1.68" fill="#e84e1b"/><rect x="11.97" y="30.22" width="1.5" height="1.68" fill="#ebc05b"/><rect x="11.97" y="28.54" width="1.5" height="1.68" fill="#f5db98"/><rect x="11.97" y="26.86" width="1.5" height="1.68" fill="#f5db98"/><rect x="11.97" y="25.18" width="1.5" height="1.68" fill="#f5db98"/><rect x="11.97" y="23.5" width="1.5" height="1.68" fill="#f5db98"/><rect x="11.97" y="21.82" width="1.5" height="1.68" fill="#a5151c"/><rect x="11.97" y="20.15" width="1.5" height="1.68" fill="#a5151c"/><rect x="11.97" y="18.47" width="1.5" height="1.68" fill="#e20613"/><rect x="11.97" y="16.78" width="1.5" height="1.69" fill="#e20613"/><rect x="11.97" y="15.1" width="1.5" height="1.68" fill="#e20613"/><rect x="11.97" y="13.43" width="1.5" height="1.68" fill="#e20613"/><rect x="11.97" y="11.75" width="1.5" height="1.68" fill="#e20613"/><rect x="11.97" y="10.07" width="1.5" height="1.68" fill="#e20613"/><rect x="11.97" y="8.39" width="1.5" height="1.68" fill="#e20613"/><rect x="11.97" y="6.71" width="1.5" height="1.68" fill="#fff"/><rect x="11.97" y="5.03" width="1.5" height="1.68" fill="#e20613"/><rect x="11.97" y="3.36" width="1.5" height="1.68" fill="#e20613"/><rect x="11.97" y="1.68" width="1.5" height="1.68" fill="#e84e1b"/><rect x="11.97" width="1.5" height="1.68" fill="#e84e1b"/><rect x="10.47" y="30.22" width="1.5" height="1.68" fill="#ebc05b"/><rect x="10.47" y="28.54" width="1.5" height="1.68" fill="#f5db98"/><rect x="10.47" y="26.86" width="1.5" height="1.68" fill="#f5db98"/><rect x="10.47" y="25.18" width="1.5" height="1.68" fill="#f5db98"/><rect x="10.47" y="23.5" width="1.5" height="1.68" fill="#f5db98"/><rect x="10.47" y="21.82" width="1.5" height="1.68" fill="#a5151c"/><rect x="10.47" y="20.15" width="1.5" height="1.68" fill="#a5151c"/><rect x="10.47" y="18.47" width="1.5" height="1.68" fill="#e20613"/><rect x="10.47" y="16.78" width="1.5" height="1.69" fill="#e20613"/><rect x="10.47" y="15.1" width="1.5" height="1.68" fill="#e20613"/><rect x="10.47" y="13.43" width="1.5" height="1.68" fill="#e20613"/><rect x="10.47" y="11.75" width="1.5" height="1.68" fill="#fff"/><rect x="10.47" y="10.07" width="1.5" height="1.68" fill="#fff"/><rect x="10.47" y="8.39" width="1.5" height="1.68" fill="#e20613"/><rect x="10.47" y="6.71" width="1.5" height="1.68" fill="#e20613"/><rect x="10.47" y="5.03" width="1.5" height="1.68" fill="#e20613"/><rect x="10.47" y="3.36" width="1.5" height="1.68" fill="#e84e1b"/><rect x="10.47" y="1.68" width="1.5" height="1.68" fill="#e84e1b"/><rect x="10.47" width="1.5" height="1.68" fill="#e84e1b"/><rect x="8.98" y="30.22" width="1.5" height="1.68" fill="#ebc05b"/><rect x="8.98" y="28.54" width="1.5" height="1.68" fill="#f5db98"/><rect x="8.98" y="26.86" width="1.5" height="1.68" fill="#f5db98"/><rect x="8.98" y="25.18" width="1.5" height="1.68" fill="#f5db98"/><rect x="8.98" y="23.5" width="1.5" height="1.68" fill="#f5db98"/><rect x="8.98" y="21.82" width="1.5" height="1.68" fill="#a5151c"/><rect x="8.98" y="20.15" width="1.5" height="1.68" fill="#a5151c"/><rect x="8.98" y="18.47" width="1.5" height="1.68" fill="#e20613"/><rect x="8.98" y="16.78" width="1.5" height="1.69" fill="#e20613"/><rect x="8.98" y="15.1" width="1.5" height="1.68" fill="#e20613"/><rect x="8.98" y="13.43" width="1.5" height="1.68" fill="#fff"/><rect x="8.98" y="11.75" width="1.5" height="1.68" fill="#fff"/><rect x="8.98" y="10.07" width="1.5" height="1.68" fill="#fff"/><rect x="8.98" y="8.39" width="1.5" height="1.68" fill="#fff"/><rect x="8.98" y="6.71" width="1.5" height="1.68" fill="#e20613"/><rect x="8.98" y="5.03" width="1.5" height="1.68" fill="#e84e1b"/><rect x="8.98" y="3.36" width="1.5" height="1.68" fill="#e84e1b"/><rect x="8.98" y="1.68" width="1.5" height="1.68" fill="#e84e1b"/><rect x="7.48" y="21.82" width="1.5" height="1.68" fill="#a5151c"/><rect x="7.48" y="20.15" width="1.5" height="1.68" fill="#a5151c"/><rect x="7.48" y="18.47" width="1.5" height="1.68" fill="#e20613"/><rect x="7.48" y="16.78" width="1.5" height="1.69" fill="#e20613"/><rect x="7.48" y="15.1" width="1.5" height="1.68" fill="#e20613"/><rect x="7.48" y="13.43" width="1.5" height="1.68" fill="#e20613"/><rect x="7.48" y="11.75" width="1.5" height="1.68" fill="#fff"/><rect x="7.48" y="10.07" width="1.5" height="1.68" fill="#fff"/><rect x="7.48" y="8.39" width="1.5" height="1.68" fill="#e20613"/><rect x="7.48" y="6.71" width="1.5" height="1.68" fill="#e84e1b"/><rect x="7.48" y="5.03" width="1.5" height="1.68" fill="#e84e1b"/><rect x="7.48" y="3.36" width="1.5" height="1.68" fill="#e84e1b"/><rect x="5.98" y="21.82" width="1.5" height="1.68" fill="#a5151c"/><rect x="5.98" y="20.15" width="1.5" height="1.68" fill="#a5151c"/><rect x="5.98" y="18.47" width="1.5" height="1.68" fill="#e20613"/><rect x="5.98" y="16.78" width="1.5" height="1.69" fill="#fff"/><rect x="5.98" y="15.1" width="1.5" height="1.68" fill="#e20613"/><rect x="5.98" y="13.43" width="1.5" height="1.68" fill="#e20613"/><rect x="5.98" y="11.75" width="1.5" height="1.68" fill="#e20613"/><rect x="5.98" y="10.07" width="1.5" height="1.68" fill="#e20613"/><rect x="5.98" y="8.39" width="1.5" height="1.68" fill="#e20613"/><rect x="5.98" y="6.71" width="1.5" height="1.68" fill="#e84e1b"/><rect x="5.98" y="5.03" width="1.5" height="1.68" fill="#e84e1b"/><rect x="4.49" y="21.82" width="1.5" height="1.68" fill="#a5151c"/><rect x="4.49" y="20.15" width="1.5" height="1.68" fill="#a5151c"/><rect x="4.49" y="18.47" width="1.5" height="1.68" fill="#fff"/><rect x="4.49" y="16.78" width="1.5" height="1.69" fill="#fff"/><rect x="4.49" y="15.1" width="1.5" height="1.68" fill="#fff"/><rect x="4.49" y="13.43" width="1.5" height="1.68" fill="#e20613"/><rect x="4.49" y="11.75" width="1.5" height="1.68" fill="#e20613"/><rect x="4.49" y="10.07" width="1.5" height="1.68" fill="#e20613"/><rect x="4.49" y="8.39" width="1.5" height="1.68" fill="#e84e1b"/><rect x="4.49" y="6.71" width="1.5" height="1.68" fill="#e84e1b"/><rect x="2.99" y="21.82" width="1.5" height="1.68" fill="#a5151c"/><rect x="2.99" y="20.15" width="1.5" height="1.68" fill="#a5151c"/><rect x="2.99" y="18.47" width="1.5" height="1.68" fill="#fff"/><rect x="2.99" y="16.78" width="1.5" height="1.69" fill="#fff"/><rect x="2.99" y="15.1" width="1.5" height="1.68" fill="#fff"/><rect x="2.99" y="13.43" width="1.5" height="1.68" fill="#e20613"/><rect x="2.99" y="11.75" width="1.5" height="1.68" fill="#e20613"/><rect x="2.99" y="10.07" width="1.5" height="1.68" fill="#e84e1b"/><rect x="2.99" y="8.39" width="1.5" height="1.68" fill="#e84e1b"/><rect x="1.5" y="21.82" width="1.5" height="1.68" fill="#a5151c"/><rect x="1.5" y="20.15" width="1.5" height="1.68" fill="#a5151c"/><rect x="1.5" y="18.47" width="1.5" height="1.68" fill="#e20613"/><rect x="1.5" y="16.78" width="1.5" height="1.69" fill="#fff"/><rect x="1.5" y="15.1" width="1.5" height="1.68" fill="#e20613"/><rect x="1.5" y="13.43" width="1.5" height="1.68" fill="#e20613"/><rect x="1.5" y="11.75" width="1.5" height="1.68" fill="#e84e1b"/><rect x="1.5" y="10.07" width="1.5" height="1.68" fill="#e84e1b"/><rect y="21.82" width="1.5" height="1.68" fill="#a5151c"/><rect y="20.15" width="1.5" height="1.68" fill="#a5151c"/><rect y="18.47" width="1.5" height="1.68" fill="#e20613"/><rect y="16.78" width="1.5" height="1.69" fill="#e20613"/><rect y="15.1" width="1.5" height="1.68" fill="#e20613"/><rect y="13.43" width="1.5" height="1.68" fill="#e20613"/><rect y="11.75" width="1.5" height="1.68" fill="#e84e1b"/><rect x="16.46" y="30.22" width="1.5" height="1.68" fill="#ebc05b"/><rect x="16.46" y="28.54" width="1.5" height="1.68" fill="#ebc05b"/><rect x="16.46" y="26.86" width="1.5" height="1.68" fill="#f5db98"/><rect x="16.46" y="25.18" width="1.5" height="1.68" fill="#f5db98"/><rect x="16.46" y="23.5" width="1.5" height="1.68" fill="#f5db98"/><rect x="16.46" y="21.82" width="1.5" height="1.68" fill="#a5151c"/><rect x="16.46" y="20.15" width="1.5" height="1.68" fill="#a5151c"/><rect x="16.46" y="18.47" width="1.5" height="1.68" fill="#fff"/><rect x="16.46" y="16.78" width="1.5" height="1.69" fill="#fff"/><rect x="16.46" y="15.1" width="1.5" height="1.68" fill="#e20613"/><rect x="16.46" y="13.43" width="1.5" height="1.68" fill="#e20613"/><rect x="16.46" y="11.75" width="1.5" height="1.68" fill="#e20613"/><rect x="16.46" y="10.07" width="1.5" height="1.68" fill="#e20613"/><rect x="16.46" y="8.39" width="1.5" height="1.68" fill="#fff"/><rect x="16.46" y="6.71" width="1.5" height="1.68" fill="#fff"/><rect x="16.46" y="5.03" width="1.5" height="1.68" fill="#fff"/><rect x="16.46" y="3.36" width="1.5" height="1.68" fill="#e20613"/><rect x="16.46" y="1.68" width="1.5" height="1.68" fill="#e20613"/><rect x="16.46" width="1.5" height="1.68" fill="#e84e1b"/><rect x="17.96" y="30.22" width="1.5" height="1.68" fill="#ebc05b"/><rect x="17.96" y="28.54" width="1.5" height="1.68" fill="#ebc05b"/><rect x="17.96" y="26.86" width="1.5" height="1.68" fill="#ebc05b"/><rect x="17.96" y="25.18" width="1.5" height="1.68" fill="#f5db98"/><rect x="17.96" y="23.5" width="1.5" height="1.68" fill="#f5db98"/><rect x="17.96" y="21.82" width="1.5" height="1.68" fill="#a5151c"/><rect x="17.96" y="20.15" width="1.5" height="1.68" fill="#a5151c"/><rect x="17.96" y="18.47" width="1.5" height="1.68" fill="#e20613"/><rect x="17.96" y="16.78" width="1.5" height="1.69" fill="#e20613"/><rect x="17.96" y="15.1" width="1.5" height="1.68" fill="#e20613"/><rect x="17.96" y="13.43" width="1.5" height="1.68" fill="#e20613"/><rect x="17.96" y="11.75" width="1.5" height="1.68" fill="#e20613"/><rect x="17.96" y="10.07" width="1.5" height="1.68" fill="#e20613"/><rect x="17.96" y="8.39" width="1.5" height="1.68" fill="#fff"/><rect x="17.96" y="6.71" width="1.5" height="1.68" fill="#fff"/><rect x="17.96" y="5.03" width="1.5" height="1.68" fill="#fff"/><rect x="17.96" y="3.36" width="1.5" height="1.68" fill="#e20613"/><rect x="17.96" y="1.68" width="1.5" height="1.68" fill="#e20613"/><rect x="17.96" width="1.5" height="1.68" fill="#e20613"/><rect x="19.46" y="30.22" width="1.5" height="1.68" fill="#ebc05b"/><rect x="19.46" y="28.54" width="1.5" height="1.68" fill="#ebc05b"/><rect x="19.46" y="26.86" width="1.5" height="1.68" fill="#ebc05b"/><rect x="19.46" y="25.18" width="1.5" height="1.68" fill="#f5db98"/><rect x="19.46" y="23.5" width="1.5" height="1.68" fill="#f5db98"/><rect x="19.46" y="21.82" width="1.5" height="1.68" fill="#a5151c"/><rect x="19.46" y="20.15" width="1.5" height="1.68" fill="#a5151c"/><rect x="19.46" y="18.47" width="1.5" height="1.68" fill="#e20613"/><rect x="19.46" y="16.78" width="1.5" height="1.69" fill="#e20613"/><rect x="19.46" y="15.1" width="1.5" height="1.68" fill="#e20613"/><rect x="19.46" y="13.43" width="1.5" height="1.68" fill="#e20613"/><rect x="19.46" y="11.75" width="1.5" height="1.68" fill="#e20613"/><rect x="19.46" y="10.07" width="1.5" height="1.68" fill="#e20613"/><rect x="19.46" y="8.39" width="1.5" height="1.68" fill="#e20613"/><rect x="19.46" y="6.71" width="1.5" height="1.68" fill="#fff"/><rect x="19.46" y="5.03" width="1.5" height="1.68" fill="#e20613"/><rect x="19.46" y="3.36" width="1.5" height="1.68" fill="#e20613"/><rect x="19.46" y="1.68" width="1.5" height="1.68" fill="#e20613"/><rect x="19.46" width="1.5" height="1.68" fill="#e20613"/><rect x="20.96" y="30.22" width="1.5" height="1.68" fill="#ebc05b"/><rect x="20.96" y="28.54" width="1.5" height="1.68" fill="#ebc05b"/><rect x="20.96" y="26.86" width="1.5" height="1.68" fill="#ebc05b"/><rect x="20.96" y="25.18" width="1.5" height="1.68" fill="#f5db98"/><rect x="20.96" y="23.5" width="1.5" height="1.68" fill="#f5db98"/><rect x="20.96" y="21.82" width="1.5" height="1.68" fill="#a5151c"/><rect x="20.96" y="20.15" width="1.5" height="1.68" fill="#a5151c"/><rect x="20.96" y="18.47" width="1.5" height="1.68" fill="#e20613"/><rect x="20.96" y="16.78" width="1.5" height="1.69" fill="#e20613"/><rect x="20.96" y="15.1" width="1.5" height="1.68" fill="#e20613"/><rect x="20.96" y="13.43" width="1.5" height="1.68" fill="#e20613"/><rect x="20.96" y="11.75" width="1.5" height="1.68" fill="#fff"/><rect x="20.96" y="10.07" width="1.5" height="1.68" fill="#fff"/><rect x="20.96" y="8.39" width="1.5" height="1.68" fill="#e20613"/><rect x="20.96" y="6.71" width="1.5" height="1.68" fill="#e20613"/><rect x="20.96" y="5.03" width="1.5" height="1.68" fill="#e20613"/><rect x="20.96" y="3.36" width="1.5" height="1.68" fill="#e20613"/><rect x="20.96" y="1.68" width="1.5" height="1.68" fill="#e20613"/><rect x="20.96" width="1.5" height="1.68" fill="#e20613"/><rect x="22.45" y="30.22" width="1.5" height="1.68" fill="#ebc05b"/><rect x="22.45" y="28.54" width="1.5" height="1.68" fill="#ebc05b"/><rect x="22.45" y="26.86" width="1.5" height="1.68" fill="#ebc05b"/><rect x="22.45" y="25.18" width="1.5" height="1.68" fill="#ebc05b"/><rect x="22.45" y="23.5" width="1.5" height="1.68" fill="#ebc05b"/><rect x="22.45" y="21.82" width="1.5" height="1.68" fill="#a5151c"/><rect x="22.45" y="20.15" width="1.5" height="1.68" fill="#a5151c"/><rect x="22.45" y="18.47" width="1.5" height="1.68" fill="#e20613"/><rect x="22.45" y="16.78" width="1.5" height="1.69" fill="#e20613"/><rect x="22.45" y="15.1" width="1.5" height="1.68" fill="#e20613"/><rect x="22.45" y="13.43" width="1.5" height="1.68" fill="#fff"/><rect x="22.45" y="11.75" width="1.5" height="1.68" fill="#fff"/><rect x="22.45" y="10.07" width="1.5" height="1.68" fill="#fff"/><rect x="22.45" y="8.39" width="1.5" height="1.68" fill="#fff"/><rect x="22.45" y="6.71" width="1.5" height="1.68" fill="#e20613"/><rect x="22.45" y="5.03" width="1.5" height="1.68" fill="#e20613"/><rect x="22.45" y="3.36" width="1.5" height="1.68" fill="#e20613"/><rect x="22.45" y="1.68" width="1.5" height="1.68" fill="#e20613"/><rect x="23.95" y="21.82" width="1.5" height="1.68" fill="#a5151c"/><rect x="23.95" y="20.15" width="1.5" height="1.68" fill="#a5151c"/><rect x="23.95" y="18.47" width="1.5" height="1.68" fill="#e20613"/><rect x="23.95" y="16.78" width="1.5" height="1.69" fill="#e20613"/><rect x="23.95" y="15.1" width="1.5" height="1.68" fill="#e20613"/><rect x="23.95" y="13.43" width="1.5" height="1.68" fill="#e20613"/><rect x="23.95" y="11.75" width="1.5" height="1.68" fill="#fff"/><rect x="23.95" y="10.07" width="1.5" height="1.68" fill="#fff"/><rect x="23.95" y="8.39" width="1.5" height="1.68" fill="#e20613"/><rect x="23.95" y="6.71" width="1.5" height="1.68" fill="#e20613"/><rect x="23.95" y="5.03" width="1.5" height="1.68" fill="#e20613"/><rect x="23.95" y="3.36" width="1.5" height="1.68" fill="#e20613"/><rect x="25.45" y="21.82" width="1.5" height="1.68" fill="#a5151c"/><rect x="25.45" y="20.15" width="1.5" height="1.68" fill="#a5151c"/><rect x="25.45" y="18.47" width="1.5" height="1.68" fill="#e20613"/><rect x="25.45" y="16.78" width="1.5" height="1.69" fill="#fff"/><rect x="25.45" y="15.1" width="1.5" height="1.68" fill="#e20613"/><rect x="25.45" y="13.43" width="1.5" height="1.68" fill="#e20613"/><rect x="25.45" y="11.75" width="1.5" height="1.68" fill="#e20613"/><rect x="25.45" y="10.07" width="1.5" height="1.68" fill="#e20613"/><rect x="25.45" y="8.39" width="1.5" height="1.68" fill="#e20613"/><rect x="25.45" y="6.71" width="1.5" height="1.68" fill="#e20613"/><rect x="25.45" y="5.03" width="1.5" height="1.68" fill="#e20613"/><rect x="26.94" y="21.82" width="1.5" height="1.68" fill="#a5151c"/><rect x="26.94" y="20.15" width="1.5" height="1.68" fill="#a5151c"/><rect x="26.94" y="18.47" width="1.5" height="1.68" fill="#dbdbdb"/><rect x="26.94" y="16.78" width="1.5" height="1.69" fill="#fff"/><rect x="26.94" y="15.1" width="1.5" height="1.68" fill="#fff"/><rect x="26.94" y="13.43" width="1.5" height="1.68" fill="#e20613"/><rect x="26.94" y="11.75" width="1.5" height="1.68" fill="#e20613"/><rect x="26.94" y="10.07" width="1.5" height="1.68" fill="#e20613"/><rect x="26.94" y="8.39" width="1.5" height="1.68" fill="#e20613"/><rect x="26.94" y="6.71" width="1.5" height="1.68" fill="#e20613"/><rect x="28.44" y="21.82" width="1.5" height="1.68" fill="#a5151c"/><rect x="28.44" y="20.15" width="1.5" height="1.68" fill="#a5151c"/><rect x="28.44" y="18.47" width="1.5" height="1.68" fill="#dbdbdb"/><rect x="28.44" y="16.78" width="1.5" height="1.69" fill="#dbdbdb"/><rect x="28.44" y="15.1" width="1.5" height="1.68" fill="#fff"/><rect x="28.44" y="13.43" width="1.5" height="1.68" fill="#e20613"/><rect x="28.44" y="11.75" width="1.5" height="1.68" fill="#e20613"/><rect x="28.44" y="10.07" width="1.5" height="1.68" fill="#e20613"/><rect x="28.44" y="8.39" width="1.5" height="1.68" fill="#e20613"/><rect x="29.93" y="21.82" width="1.5" height="1.68" fill="#a5151c"/><rect x="29.93" y="20.15" width="1.5" height="1.68" fill="#a5151c"/><rect x="29.93" y="18.47" width="1.5" height="1.68" fill="#a5151c"/><rect x="29.93" y="16.78" width="1.5" height="1.69" fill="#dbdbdb"/><rect x="29.93" y="15.1" width="1.5" height="1.68" fill="#e20613"/><rect x="29.93" y="13.43" width="1.5" height="1.68" fill="#e20613"/><rect x="29.93" y="11.75" width="1.5" height="1.68" fill="#e20613"/><rect x="29.93" y="10.07" width="1.5" height="1.68" fill="#e20613"/><rect x="31.43" y="21.82" width="1.5" height="1.68" fill="#a5151c"/><rect x="31.43" y="20.15" width="1.5" height="1.68" fill="#a5151c"/><rect x="31.43" y="18.47" width="1.5" height="1.68" fill="#a5151c"/><rect x="31.43" y="16.78" width="1.5" height="1.69" fill="#a5151c"/><rect x="31.43" y="15.1" width="1.5" height="1.68" fill="#a5151c"/><rect x="31.43" y="13.43" width="1.5" height="1.68" fill="#a5151c"/><rect x="31.43" y="11.75" width="1.5" height="1.68" fill="#a5151c"/></svg>